<?xml version="1.0" encoding="UTF-8" standalone="no"?>
<!DOCTYPE svg PUBLIC "-//W3C//DTD SVG 1.1//EN"
 "http://www.w3.org/Graphics/SVG/1.1/DTD/svg11.dtd">
<!-- Generated by graphviz version 2.36.0 (20140111.2315)
 -->
<!-- Title: controllers_diagram Pages: 1 -->
<svg width="1063pt" height="1122pt"
 viewBox="0.00 0.00 1063.00 1122.00" xmlns="http://www.w3.org/2000/svg" xmlns:xlink="http://www.w3.org/1999/xlink">
<g id="graph0" class="graph" transform="scale(1 1) rotate(0) translate(4 1118)">
<title>controllers_diagram</title>
<polygon fill="none" stroke="none" points="-4,4 -4,-1118 1059,-1118 1059,4 -4,4"/>
<!-- _diagram_info -->
<g id="node1" class="node"><title>_diagram_info</title>
<text text-anchor="start" x="28" y="-123.6" font-family="Times,serif" font-size="13.00">Controllers diagram</text>
<text text-anchor="start" x="28" y="-109.6" font-family="Times,serif" font-size="13.00">Date: Sep 14 2015 &#45; 22:38</text>
<text text-anchor="start" x="28" y="-95.6" font-family="Times,serif" font-size="13.00">Migration version: 20150907073129</text>
<text text-anchor="start" x="28" y="-81.6" font-family="Times,serif" font-size="13.00">Generated by RailRoady 1.3.1</text>
<text text-anchor="start" x="28" y="-67.6" font-family="Times,serif" font-size="13.00">http://railroady.prestonlee.com</text>
</g>
<!-- OfficesController -->
<g id="node2" class="node"><title>OfficesController</title>
<path fill="none" stroke="black" d="M792,-400.5C792,-400.5 880,-400.5 880,-400.5 886,-400.5 892,-406.5 892,-412.5 892,-412.5 892,-601.5 892,-601.5 892,-607.5 886,-613.5 880,-613.5 880,-613.5 792,-613.5 792,-613.5 786,-613.5 780,-607.5 780,-601.5 780,-601.5 780,-412.5 780,-412.5 780,-406.5 786,-400.5 792,-400.5"/>
<text text-anchor="middle" x="836" y="-598.3" font-family="Times,serif" font-size="14.00">OfficesController</text>
<polyline fill="none" stroke="black" points="780,-590.5 892,-590.5 "/>
<text text-anchor="start" x="788" y="-575.3" font-family="Times,serif" font-size="14.00">create</text>
<text text-anchor="start" x="788" y="-560.3" font-family="Times,serif" font-size="14.00">destroy</text>
<text text-anchor="start" x="788" y="-545.3" font-family="Times,serif" font-size="14.00">edit</text>
<text text-anchor="start" x="788" y="-530.3" font-family="Times,serif" font-size="14.00">index</text>
<text text-anchor="start" x="788" y="-515.3" font-family="Times,serif" font-size="14.00">new</text>
<text text-anchor="start" x="788" y="-500.3" font-family="Times,serif" font-size="14.00">show</text>
<text text-anchor="start" x="788" y="-485.3" font-family="Times,serif" font-size="14.00">update</text>
<polyline fill="none" stroke="black" points="780,-477.5 892,-477.5 "/>
<polyline fill="none" stroke="black" points="780,-453.5 892,-453.5 "/>
<text text-anchor="start" x="788" y="-438.3" font-family="Times,serif" font-size="14.00">_layout</text>
<text text-anchor="start" x="788" y="-423.3" font-family="Times,serif" font-size="14.00">office_params</text>
<text text-anchor="start" x="788" y="-408.3" font-family="Times,serif" font-size="14.00">set_office</text>
</g>
<!-- ComplaintStatusesController -->
<g id="node3" class="node"><title>ComplaintStatusesController</title>
<path fill="none" stroke="black" d="M792,-660.5C792,-660.5 942,-660.5 942,-660.5 948,-660.5 954,-666.5 954,-672.5 954,-672.5 954,-801.5 954,-801.5 954,-807.5 948,-813.5 942,-813.5 942,-813.5 792,-813.5 792,-813.5 786,-813.5 780,-807.5 780,-801.5 780,-801.5 780,-672.5 780,-672.5 780,-666.5 786,-660.5 792,-660.5"/>
<text text-anchor="middle" x="867" y="-798.3" font-family="Times,serif" font-size="14.00">ComplaintStatusesController</text>
<polyline fill="none" stroke="black" points="780,-790.5 954,-790.5 "/>
<text text-anchor="start" x="788" y="-775.3" font-family="Times,serif" font-size="14.00">create</text>
<text text-anchor="start" x="788" y="-760.3" font-family="Times,serif" font-size="14.00">delete</text>
<text text-anchor="start" x="788" y="-745.3" font-family="Times,serif" font-size="14.00">index</text>
<text text-anchor="start" x="788" y="-730.3" font-family="Times,serif" font-size="14.00">new</text>
<text text-anchor="start" x="788" y="-715.3" font-family="Times,serif" font-size="14.00">update</text>
<polyline fill="none" stroke="black" points="780,-707.5 954,-707.5 "/>
<polyline fill="none" stroke="black" points="780,-683.5 954,-683.5 "/>
<text text-anchor="start" x="788" y="-668.3" font-family="Times,serif" font-size="14.00">_layout</text>
</g>
<!-- ComplaintsController -->
<g id="node4" class="node"><title>ComplaintsController</title>
<path fill="none" stroke="black" d="M412,-640.5C412,-640.5 523,-640.5 523,-640.5 529,-640.5 535,-646.5 535,-652.5 535,-652.5 535,-856.5 535,-856.5 535,-862.5 529,-868.5 523,-868.5 523,-868.5 412,-868.5 412,-868.5 406,-868.5 400,-862.5 400,-856.5 400,-856.5 400,-652.5 400,-652.5 400,-646.5 406,-640.5 412,-640.5"/>
<text text-anchor="middle" x="467.5" y="-853.3" font-family="Times,serif" font-size="14.00">ComplaintsController</text>
<polyline fill="none" stroke="black" points="400,-845.5 535,-845.5 "/>
<text text-anchor="start" x="408" y="-830.3" font-family="Times,serif" font-size="14.00">create</text>
<text text-anchor="start" x="408" y="-815.3" font-family="Times,serif" font-size="14.00">destroy</text>
<text text-anchor="start" x="408" y="-800.3" font-family="Times,serif" font-size="14.00">edit</text>
<text text-anchor="start" x="408" y="-785.3" font-family="Times,serif" font-size="14.00">home</text>
<text text-anchor="start" x="408" y="-770.3" font-family="Times,serif" font-size="14.00">index</text>
<text text-anchor="start" x="408" y="-755.3" font-family="Times,serif" font-size="14.00">new</text>
<text text-anchor="start" x="408" y="-740.3" font-family="Times,serif" font-size="14.00">show</text>
<text text-anchor="start" x="408" y="-725.3" font-family="Times,serif" font-size="14.00">update</text>
<polyline fill="none" stroke="black" points="400,-717.5 535,-717.5 "/>
<polyline fill="none" stroke="black" points="400,-693.5 535,-693.5 "/>
<text text-anchor="start" x="408" y="-678.3" font-family="Times,serif" font-size="14.00">_layout</text>
<text text-anchor="start" x="408" y="-663.3" font-family="Times,serif" font-size="14.00">complaint_params</text>
<text text-anchor="start" x="408" y="-648.3" font-family="Times,serif" font-size="14.00">set_complaint</text>
</g>
<!-- VipCategoriesController -->
<g id="node5" class="node"><title>VipCategoriesController</title>
<path fill="none" stroke="black" d="M232,-700.5C232,-700.5 358,-700.5 358,-700.5 364,-700.5 370,-706.5 370,-712.5 370,-712.5 370,-901.5 370,-901.5 370,-907.5 364,-913.5 358,-913.5 358,-913.5 232,-913.5 232,-913.5 226,-913.5 220,-907.5 220,-901.5 220,-901.5 220,-712.5 220,-712.5 220,-706.5 226,-700.5 232,-700.5"/>
<text text-anchor="middle" x="295" y="-898.3" font-family="Times,serif" font-size="14.00">VipCategoriesController</text>
<polyline fill="none" stroke="black" points="220,-890.5 370,-890.5 "/>
<text text-anchor="start" x="228" y="-875.3" font-family="Times,serif" font-size="14.00">create</text>
<text text-anchor="start" x="228" y="-860.3" font-family="Times,serif" font-size="14.00">destroy</text>
<text text-anchor="start" x="228" y="-845.3" font-family="Times,serif" font-size="14.00">edit</text>
<text text-anchor="start" x="228" y="-830.3" font-family="Times,serif" font-size="14.00">index</text>
<text text-anchor="start" x="228" y="-815.3" font-family="Times,serif" font-size="14.00">new</text>
<text text-anchor="start" x="228" y="-800.3" font-family="Times,serif" font-size="14.00">show</text>
<text text-anchor="start" x="228" y="-785.3" font-family="Times,serif" font-size="14.00">update</text>
<polyline fill="none" stroke="black" points="220,-777.5 370,-777.5 "/>
<polyline fill="none" stroke="black" points="220,-753.5 370,-753.5 "/>
<text text-anchor="start" x="228" y="-738.3" font-family="Times,serif" font-size="14.00">_layout</text>
<text text-anchor="start" x="228" y="-723.3" font-family="Times,serif" font-size="14.00">set_vip_category</text>
<text text-anchor="start" x="228" y="-708.3" font-family="Times,serif" font-size="14.00">vip_category_params</text>
</g>
<!-- RegistrationsController -->
<g id="node6" class="node"><title>RegistrationsController</title>
<path fill="none" stroke="black" d="M652,-0.5C652,-0.5 771,-0.5 771,-0.5 777,-0.5 783,-6.5 783,-12.5 783,-12.5 783,-81.5 783,-81.5 783,-87.5 777,-93.5 771,-93.5 771,-93.5 652,-93.5 652,-93.5 646,-93.5 640,-87.5 640,-81.5 640,-81.5 640,-12.5 640,-12.5 640,-6.5 646,-0.5 652,-0.5"/>
<text text-anchor="middle" x="711.5" y="-78.3" font-family="Times,serif" font-size="14.00">RegistrationsController</text>
<polyline fill="none" stroke="black" points="640,-70.5 783,-70.5 "/>
<text text-anchor="start" x="648" y="-55.3" font-family="Times,serif" font-size="14.00">new</text>
<polyline fill="none" stroke="black" points="640,-47.5 783,-47.5 "/>
<polyline fill="none" stroke="black" points="640,-23.5 783,-23.5 "/>
<text text-anchor="start" x="648" y="-8.3" font-family="Times,serif" font-size="14.00">_layout</text>
</g>
<!-- VipRefAppController -->
<g id="node7" class="node"><title>VipRefAppController</title>
<path fill="none" stroke="black" d="M932,-400.5C932,-400.5 1043,-400.5 1043,-400.5 1049,-400.5 1055,-406.5 1055,-412.5 1055,-412.5 1055,-526.5 1055,-526.5 1055,-532.5 1049,-538.5 1043,-538.5 1043,-538.5 932,-538.5 932,-538.5 926,-538.5 920,-532.5 920,-526.5 920,-526.5 920,-412.5 920,-412.5 920,-406.5 926,-400.5 932,-400.5"/>
<text text-anchor="middle" x="987.5" y="-523.3" font-family="Times,serif" font-size="14.00">VipRefAppController</text>
<polyline fill="none" stroke="black" points="920,-515.5 1055,-515.5 "/>
<text text-anchor="start" x="928" y="-500.3" font-family="Times,serif" font-size="14.00">draft</text>
<text text-anchor="start" x="928" y="-485.3" font-family="Times,serif" font-size="14.00">home</text>
<text text-anchor="start" x="928" y="-470.3" font-family="Times,serif" font-size="14.00">inbox</text>
<text text-anchor="start" x="928" y="-455.3" font-family="Times,serif" font-size="14.00">sent</text>
<polyline fill="none" stroke="black" points="920,-447.5 1055,-447.5 "/>
<polyline fill="none" stroke="black" points="920,-423.5 1055,-423.5 "/>
<text text-anchor="start" x="928" y="-408.3" font-family="Times,serif" font-size="14.00">_layout</text>
</g>
<!-- CountriesController -->
<g id="node8" class="node"><title>CountriesController</title>
<path fill="none" stroke="black" d="M192,-440.5C192,-440.5 293,-440.5 293,-440.5 299,-440.5 305,-446.5 305,-452.5 305,-452.5 305,-656.5 305,-656.5 305,-662.5 299,-668.5 293,-668.5 293,-668.5 192,-668.5 192,-668.5 186,-668.5 180,-662.5 180,-656.5 180,-656.5 180,-452.5 180,-452.5 180,-446.5 186,-440.5 192,-440.5"/>
<text text-anchor="middle" x="242.5" y="-653.3" font-family="Times,serif" font-size="14.00">CountriesController</text>
<polyline fill="none" stroke="black" points="180,-645.5 305,-645.5 "/>
<text text-anchor="start" x="188" y="-630.3" font-family="Times,serif" font-size="14.00">create</text>
<text text-anchor="start" x="188" y="-615.3" font-family="Times,serif" font-size="14.00">destroy</text>
<text text-anchor="start" x="188" y="-600.3" font-family="Times,serif" font-size="14.00">edit</text>
<text text-anchor="start" x="188" y="-585.3" font-family="Times,serif" font-size="14.00">index</text>
<text text-anchor="start" x="188" y="-570.3" font-family="Times,serif" font-size="14.00">new</text>
<text text-anchor="start" x="188" y="-555.3" font-family="Times,serif" font-size="14.00">show</text>
<text text-anchor="start" x="188" y="-540.3" font-family="Times,serif" font-size="14.00">update</text>
<text text-anchor="start" x="188" y="-525.3" font-family="Times,serif" font-size="14.00">update_states</text>
<polyline fill="none" stroke="black" points="180,-517.5 305,-517.5 "/>
<polyline fill="none" stroke="black" points="180,-493.5 305,-493.5 "/>
<text text-anchor="start" x="188" y="-478.3" font-family="Times,serif" font-size="14.00">_layout</text>
<text text-anchor="start" x="188" y="-463.3" font-family="Times,serif" font-size="14.00">country_params</text>
<text text-anchor="start" x="188" y="-448.3" font-family="Times,serif" font-size="14.00">set_country</text>
</g>
<!-- StatusesController -->
<g id="node9" class="node"><title>StatusesController</title>
<path fill="none" stroke="black" d="M832,-860.5C832,-860.5 924,-860.5 924,-860.5 930,-860.5 936,-866.5 936,-872.5 936,-872.5 936,-1061.5 936,-1061.5 936,-1067.5 930,-1073.5 924,-1073.5 924,-1073.5 832,-1073.5 832,-1073.5 826,-1073.5 820,-1067.5 820,-1061.5 820,-1061.5 820,-872.5 820,-872.5 820,-866.5 826,-860.5 832,-860.5"/>
<text text-anchor="middle" x="878" y="-1058.3" font-family="Times,serif" font-size="14.00">StatusesController</text>
<polyline fill="none" stroke="black" points="820,-1050.5 936,-1050.5 "/>
<text text-anchor="start" x="828" y="-1035.3" font-family="Times,serif" font-size="14.00">create</text>
<text text-anchor="start" x="828" y="-1020.3" font-family="Times,serif" font-size="14.00">destroy</text>
<text text-anchor="start" x="828" y="-1005.3" font-family="Times,serif" font-size="14.00">edit</text>
<text text-anchor="start" x="828" y="-990.3" font-family="Times,serif" font-size="14.00">index</text>
<text text-anchor="start" x="828" y="-975.3" font-family="Times,serif" font-size="14.00">new</text>
<text text-anchor="start" x="828" y="-960.3" font-family="Times,serif" font-size="14.00">show</text>
<text text-anchor="start" x="828" y="-945.3" font-family="Times,serif" font-size="14.00">update</text>
<polyline fill="none" stroke="black" points="820,-937.5 936,-937.5 "/>
<polyline fill="none" stroke="black" points="820,-913.5 936,-913.5 "/>
<text text-anchor="start" x="828" y="-898.3" font-family="Times,serif" font-size="14.00">_layout</text>
<text text-anchor="start" x="828" y="-883.3" font-family="Times,serif" font-size="14.00">set_status</text>
<text text-anchor="start" x="828" y="-868.3" font-family="Times,serif" font-size="14.00">status_params</text>
</g>
<!-- VipRefStatusesController -->
<g id="node10" class="node"><title>VipRefStatusesController</title>
<path fill="none" stroke="black" d="M152,-180.5C152,-180.5 284,-180.5 284,-180.5 290,-180.5 296,-186.5 296,-192.5 296,-192.5 296,-381.5 296,-381.5 296,-387.5 290,-393.5 284,-393.5 284,-393.5 152,-393.5 152,-393.5 146,-393.5 140,-387.5 140,-381.5 140,-381.5 140,-192.5 140,-192.5 140,-186.5 146,-180.5 152,-180.5"/>
<text text-anchor="middle" x="218" y="-378.3" font-family="Times,serif" font-size="14.00">VipRefStatusesController</text>
<polyline fill="none" stroke="black" points="140,-370.5 296,-370.5 "/>
<text text-anchor="start" x="148" y="-355.3" font-family="Times,serif" font-size="14.00">create</text>
<text text-anchor="start" x="148" y="-340.3" font-family="Times,serif" font-size="14.00">destroy</text>
<text text-anchor="start" x="148" y="-325.3" font-family="Times,serif" font-size="14.00">edit</text>
<text text-anchor="start" x="148" y="-310.3" font-family="Times,serif" font-size="14.00">index</text>
<text text-anchor="start" x="148" y="-295.3" font-family="Times,serif" font-size="14.00">new</text>
<text text-anchor="start" x="148" y="-280.3" font-family="Times,serif" font-size="14.00">show</text>
<text text-anchor="start" x="148" y="-265.3" font-family="Times,serif" font-size="14.00">update</text>
<polyline fill="none" stroke="black" points="140,-257.5 296,-257.5 "/>
<polyline fill="none" stroke="black" points="140,-233.5 296,-233.5 "/>
<text text-anchor="start" x="148" y="-218.3" font-family="Times,serif" font-size="14.00">_layout</text>
<text text-anchor="start" x="148" y="-203.3" font-family="Times,serif" font-size="14.00">set_vip_ref_status</text>
<text text-anchor="start" x="148" y="-188.3" font-family="Times,serif" font-size="14.00">vip_ref_status_params</text>
</g>
<!-- HandlersController -->
<g id="node11" class="node"><title>HandlersController</title>
<path fill="none" stroke="black" d="M72,-860.5C72,-860.5 169,-860.5 169,-860.5 175,-860.5 181,-866.5 181,-872.5 181,-872.5 181,-1061.5 181,-1061.5 181,-1067.5 175,-1073.5 169,-1073.5 169,-1073.5 72,-1073.5 72,-1073.5 66,-1073.5 60,-1067.5 60,-1061.5 60,-1061.5 60,-872.5 60,-872.5 60,-866.5 66,-860.5 72,-860.5"/>
<text text-anchor="middle" x="120.5" y="-1058.3" font-family="Times,serif" font-size="14.00">HandlersController</text>
<polyline fill="none" stroke="black" points="60,-1050.5 181,-1050.5 "/>
<text text-anchor="start" x="68" y="-1035.3" font-family="Times,serif" font-size="14.00">create</text>
<text text-anchor="start" x="68" y="-1020.3" font-family="Times,serif" font-size="14.00">destroy</text>
<text text-anchor="start" x="68" y="-1005.3" font-family="Times,serif" font-size="14.00">edit</text>
<text text-anchor="start" x="68" y="-990.3" font-family="Times,serif" font-size="14.00">index</text>
<text text-anchor="start" x="68" y="-975.3" font-family="Times,serif" font-size="14.00">new</text>
<text text-anchor="start" x="68" y="-960.3" font-family="Times,serif" font-size="14.00">show</text>
<text text-anchor="start" x="68" y="-945.3" font-family="Times,serif" font-size="14.00">update</text>
<polyline fill="none" stroke="black" points="60,-937.5 181,-937.5 "/>
<polyline fill="none" stroke="black" points="60,-913.5 181,-913.5 "/>
<text text-anchor="start" x="68" y="-898.3" font-family="Times,serif" font-size="14.00">_layout</text>
<text text-anchor="start" x="68" y="-883.3" font-family="Times,serif" font-size="14.00">handler_params</text>
<text text-anchor="start" x="68" y="-868.3" font-family="Times,serif" font-size="14.00">set_handler</text>
</g>
<!-- ComplaintTypesController -->
<g id="node12" class="node"><title>ComplaintTypesController</title>
<path fill="none" stroke="black" d="M792,-140.5C792,-140.5 931,-140.5 931,-140.5 937,-140.5 943,-146.5 943,-152.5 943,-152.5 943,-341.5 943,-341.5 943,-347.5 937,-353.5 931,-353.5 931,-353.5 792,-353.5 792,-353.5 786,-353.5 780,-347.5 780,-341.5 780,-341.5 780,-152.5 780,-152.5 780,-146.5 786,-140.5 792,-140.5"/>
<text text-anchor="middle" x="861.5" y="-338.3" font-family="Times,serif" font-size="14.00">ComplaintTypesController</text>
<polyline fill="none" stroke="black" points="780,-330.5 943,-330.5 "/>
<text text-anchor="start" x="788" y="-315.3" font-family="Times,serif" font-size="14.00">create</text>
<text text-anchor="start" x="788" y="-300.3" font-family="Times,serif" font-size="14.00">destroy</text>
<text text-anchor="start" x="788" y="-285.3" font-family="Times,serif" font-size="14.00">edit</text>
<text text-anchor="start" x="788" y="-270.3" font-family="Times,serif" font-size="14.00">index</text>
<text text-anchor="start" x="788" y="-255.3" font-family="Times,serif" font-size="14.00">new</text>
<text text-anchor="start" x="788" y="-240.3" font-family="Times,serif" font-size="14.00">show</text>
<text text-anchor="start" x="788" y="-225.3" font-family="Times,serif" font-size="14.00">update</text>
<polyline fill="none" stroke="black" points="780,-217.5 943,-217.5 "/>
<polyline fill="none" stroke="black" points="780,-193.5 943,-193.5 "/>
<text text-anchor="start" x="788" y="-178.3" font-family="Times,serif" font-size="14.00">_layout</text>
<text text-anchor="start" x="788" y="-163.3" font-family="Times,serif" font-size="14.00">complaint_type_params</text>
<text text-anchor="start" x="788" y="-148.3" font-family="Times,serif" font-size="14.00">set_complaint_type</text>
</g>
<!-- SectionsController -->
<g id="node13" class="node"><title>SectionsController</title>
<path fill="none" stroke="black" d="M672,-880.5C672,-880.5 766,-880.5 766,-880.5 772,-880.5 778,-886.5 778,-892.5 778,-892.5 778,-1081.5 778,-1081.5 778,-1087.5 772,-1093.5 766,-1093.5 766,-1093.5 672,-1093.5 672,-1093.5 666,-1093.5 660,-1087.5 660,-1081.5 660,-1081.5 660,-892.5 660,-892.5 660,-886.5 666,-880.5 672,-880.5"/>
<text text-anchor="middle" x="719" y="-1078.3" font-family="Times,serif" font-size="14.00">SectionsController</text>
<polyline fill="none" stroke="black" points="660,-1070.5 778,-1070.5 "/>
<text text-anchor="start" x="668" y="-1055.3" font-family="Times,serif" font-size="14.00">create</text>
<text text-anchor="start" x="668" y="-1040.3" font-family="Times,serif" font-size="14.00">destroy</text>
<text text-anchor="start" x="668" y="-1025.3" font-family="Times,serif" font-size="14.00">edit</text>
<text text-anchor="start" x="668" y="-1010.3" font-family="Times,serif" font-size="14.00">index</text>
<text text-anchor="start" x="668" y="-995.3" font-family="Times,serif" font-size="14.00">new</text>
<text text-anchor="start" x="668" y="-980.3" font-family="Times,serif" font-size="14.00">show</text>
<text text-anchor="start" x="668" y="-965.3" font-family="Times,serif" font-size="14.00">update</text>
<polyline fill="none" stroke="black" points="660,-957.5 778,-957.5 "/>
<polyline fill="none" stroke="black" points="660,-933.5 778,-933.5 "/>
<text text-anchor="start" x="668" y="-918.3" font-family="Times,serif" font-size="14.00">_layout</text>
<text text-anchor="start" x="668" y="-903.3" font-family="Times,serif" font-size="14.00">section_params</text>
<text text-anchor="start" x="668" y="-888.3" font-family="Times,serif" font-size="14.00">set_section</text>
</g>
<!-- VipRefMovementsController -->
<g id="node14" class="node"><title>VipRefMovementsController</title>
<path fill="none" stroke="black" d="M352,-360.5C352,-360.5 505,-360.5 505,-360.5 511,-360.5 517,-366.5 517,-372.5 517,-372.5 517,-591.5 517,-591.5 517,-597.5 511,-603.5 505,-603.5 505,-603.5 352,-603.5 352,-603.5 346,-603.5 340,-597.5 340,-591.5 340,-591.5 340,-372.5 340,-372.5 340,-366.5 346,-360.5 352,-360.5"/>
<text text-anchor="middle" x="428.5" y="-588.3" font-family="Times,serif" font-size="14.00">VipRefMovementsController</text>
<polyline fill="none" stroke="black" points="340,-580.5 517,-580.5 "/>
<text text-anchor="start" x="348" y="-565.3" font-family="Times,serif" font-size="14.00">create</text>
<text text-anchor="start" x="348" y="-550.3" font-family="Times,serif" font-size="14.00">destroy</text>
<text text-anchor="start" x="348" y="-535.3" font-family="Times,serif" font-size="14.00">edit</text>
<text text-anchor="start" x="348" y="-520.3" font-family="Times,serif" font-size="14.00">index</text>
<text text-anchor="start" x="348" y="-505.3" font-family="Times,serif" font-size="14.00">new</text>
<text text-anchor="start" x="348" y="-490.3" font-family="Times,serif" font-size="14.00">read</text>
<text text-anchor="start" x="348" y="-475.3" font-family="Times,serif" font-size="14.00">show</text>
<text text-anchor="start" x="348" y="-460.3" font-family="Times,serif" font-size="14.00">update</text>
<polyline fill="none" stroke="black" points="340,-452.5 517,-452.5 "/>
<polyline fill="none" stroke="black" points="340,-428.5 517,-428.5 "/>
<text text-anchor="start" x="348" y="-413.3" font-family="Times,serif" font-size="14.00">_layout</text>
<text text-anchor="start" x="348" y="-398.3" font-family="Times,serif" font-size="14.00">set_vip_ref_movement</text>
<text text-anchor="start" x="348" y="-383.3" font-family="Times,serif" font-size="14.00">set_vip_reference</text>
<text text-anchor="start" x="348" y="-368.3" font-family="Times,serif" font-size="14.00">vip_reference_params</text>
</g>
<!-- StatesController -->
<g id="node15" class="node"><title>StatesController</title>
<path fill="none" stroke="black" d="M52,-480.5C52,-480.5 132,-480.5 132,-480.5 138,-480.5 144,-486.5 144,-492.5 144,-492.5 144,-696.5 144,-696.5 144,-702.5 138,-708.5 132,-708.5 132,-708.5 52,-708.5 52,-708.5 46,-708.5 40,-702.5 40,-696.5 40,-696.5 40,-492.5 40,-492.5 40,-486.5 46,-480.5 52,-480.5"/>
<text text-anchor="middle" x="92" y="-693.3" font-family="Times,serif" font-size="14.00">StatesController</text>
<polyline fill="none" stroke="black" points="40,-685.5 144,-685.5 "/>
<text text-anchor="start" x="48" y="-670.3" font-family="Times,serif" font-size="14.00">create</text>
<text text-anchor="start" x="48" y="-655.3" font-family="Times,serif" font-size="14.00">destroy</text>
<text text-anchor="start" x="48" y="-640.3" font-family="Times,serif" font-size="14.00">edit</text>
<text text-anchor="start" x="48" y="-625.3" font-family="Times,serif" font-size="14.00">index</text>
<text text-anchor="start" x="48" y="-610.3" font-family="Times,serif" font-size="14.00">new</text>
<text text-anchor="start" x="48" y="-595.3" font-family="Times,serif" font-size="14.00">show</text>
<text text-anchor="start" x="48" y="-580.3" font-family="Times,serif" font-size="14.00">update</text>
<polyline fill="none" stroke="black" points="40,-572.5 144,-572.5 "/>
<polyline fill="none" stroke="black" points="40,-548.5 144,-548.5 "/>
<text text-anchor="start" x="48" y="-533.3" font-family="Times,serif" font-size="14.00">_layout</text>
<text text-anchor="start" x="48" y="-518.3" font-family="Times,serif" font-size="14.00">set_country</text>
<text text-anchor="start" x="48" y="-503.3" font-family="Times,serif" font-size="14.00">set_state</text>
<text text-anchor="start" x="48" y="-488.3" font-family="Times,serif" font-size="14.00">state_params</text>
</g>
<!-- ApplicationController -->
<g id="node16" class="node"><title>ApplicationController</title>
<path fill="none" stroke="black" d="M452,-0.5C452,-0.5 582,-0.5 582,-0.5 588,-0.5 594,-6.5 594,-12.5 594,-12.5 594,-81.5 594,-81.5 594,-87.5 588,-93.5 582,-93.5 582,-93.5 452,-93.5 452,-93.5 446,-93.5 440,-87.5 440,-81.5 440,-81.5 440,-12.5 440,-12.5 440,-6.5 446,-0.5 452,-0.5"/>
<text text-anchor="middle" x="517" y="-78.3" font-family="Times,serif" font-size="14.00">ApplicationController</text>
<polyline fill="none" stroke="black" points="440,-70.5 594,-70.5 "/>
<text text-anchor="start" x="448" y="-55.3" font-family="Times,serif" font-size="14.00">update_sanitized_params</text>
<polyline fill="none" stroke="black" points="440,-47.5 594,-47.5 "/>
<polyline fill="none" stroke="black" points="440,-23.5 594,-23.5 "/>
<text text-anchor="start" x="448" y="-8.3" font-family="Times,serif" font-size="14.00">_layout</text>
</g>
<!-- ContactsController -->
<g id="node17" class="node"><title>ContactsController</title>
<path fill="none" stroke="black" d="M512,-900.5C512,-900.5 607,-900.5 607,-900.5 613,-900.5 619,-906.5 619,-912.5 619,-912.5 619,-1101.5 619,-1101.5 619,-1107.5 613,-1113.5 607,-1113.5 607,-1113.5 512,-1113.5 512,-1113.5 506,-1113.5 500,-1107.5 500,-1101.5 500,-1101.5 500,-912.5 500,-912.5 500,-906.5 506,-900.5 512,-900.5"/>
<text text-anchor="middle" x="559.5" y="-1098.3" font-family="Times,serif" font-size="14.00">ContactsController</text>
<polyline fill="none" stroke="black" points="500,-1090.5 619,-1090.5 "/>
<text text-anchor="start" x="508" y="-1075.3" font-family="Times,serif" font-size="14.00">create</text>
<text text-anchor="start" x="508" y="-1060.3" font-family="Times,serif" font-size="14.00">destroy</text>
<text text-anchor="start" x="508" y="-1045.3" font-family="Times,serif" font-size="14.00">edit</text>
<text text-anchor="start" x="508" y="-1030.3" font-family="Times,serif" font-size="14.00">index</text>
<text text-anchor="start" x="508" y="-1015.3" font-family="Times,serif" font-size="14.00">new</text>
<text text-anchor="start" x="508" y="-1000.3" font-family="Times,serif" font-size="14.00">show</text>
<text text-anchor="start" x="508" y="-985.3" font-family="Times,serif" font-size="14.00">update</text>
<polyline fill="none" stroke="black" points="500,-977.5 619,-977.5 "/>
<polyline fill="none" stroke="black" points="500,-953.5 619,-953.5 "/>
<text text-anchor="start" x="508" y="-938.3" font-family="Times,serif" font-size="14.00">_layout</text>
<text text-anchor="start" x="508" y="-923.3" font-family="Times,serif" font-size="14.00">contact_params</text>
<text text-anchor="start" x="508" y="-908.3" font-family="Times,serif" font-size="14.00">set_contact</text>
</g>
<!-- HomesController -->
<g id="node18" class="node"><title>HomesController</title>
<path fill="none" stroke="black" d="M12,-220.5C12,-220.5 99,-220.5 99,-220.5 105,-220.5 111,-226.5 111,-232.5 111,-232.5 111,-421.5 111,-421.5 111,-427.5 105,-433.5 99,-433.5 99,-433.5 12,-433.5 12,-433.5 6,-433.5 0,-427.5 0,-421.5 0,-421.5 0,-232.5 0,-232.5 0,-226.5 6,-220.5 12,-220.5"/>
<text text-anchor="middle" x="55.5" y="-418.3" font-family="Times,serif" font-size="14.00">HomesController</text>
<polyline fill="none" stroke="black" points="0,-410.5 111,-410.5 "/>
<text text-anchor="start" x="8" y="-395.3" font-family="Times,serif" font-size="14.00">create</text>
<text text-anchor="start" x="8" y="-380.3" font-family="Times,serif" font-size="14.00">destroy</text>
<text text-anchor="start" x="8" y="-365.3" font-family="Times,serif" font-size="14.00">edit</text>
<text text-anchor="start" x="8" y="-350.3" font-family="Times,serif" font-size="14.00">index</text>
<text text-anchor="start" x="8" y="-335.3" font-family="Times,serif" font-size="14.00">new</text>
<text text-anchor="start" x="8" y="-320.3" font-family="Times,serif" font-size="14.00">show</text>
<text text-anchor="start" x="8" y="-305.3" font-family="Times,serif" font-size="14.00">update</text>
<polyline fill="none" stroke="black" points="0,-297.5 111,-297.5 "/>
<polyline fill="none" stroke="black" points="0,-273.5 111,-273.5 "/>
<text text-anchor="start" x="8" y="-258.3" font-family="Times,serif" font-size="14.00">_layout</text>
<text text-anchor="start" x="8" y="-243.3" font-family="Times,serif" font-size="14.00">home_params</text>
<text text-anchor="start" x="8" y="-228.3" font-family="Times,serif" font-size="14.00">set_home</text>
</g>
<!-- VipReferencesController -->
<g id="node19" class="node"><title>VipReferencesController</title>
<path fill="none" stroke="black" d="M592,-620.5C592,-620.5 720,-620.5 720,-620.5 726,-620.5 732,-626.5 732,-632.5 732,-632.5 732,-836.5 732,-836.5 732,-842.5 726,-848.5 720,-848.5 720,-848.5 592,-848.5 592,-848.5 586,-848.5 580,-842.5 580,-836.5 580,-836.5 580,-632.5 580,-632.5 580,-626.5 586,-620.5 592,-620.5"/>
<text text-anchor="middle" x="656" y="-833.3" font-family="Times,serif" font-size="14.00">VipReferencesController</text>
<polyline fill="none" stroke="black" points="580,-825.5 732,-825.5 "/>
<text text-anchor="start" x="588" y="-810.3" font-family="Times,serif" font-size="14.00">create</text>
<text text-anchor="start" x="588" y="-795.3" font-family="Times,serif" font-size="14.00">destroy</text>
<text text-anchor="start" x="588" y="-780.3" font-family="Times,serif" font-size="14.00">edit</text>
<text text-anchor="start" x="588" y="-765.3" font-family="Times,serif" font-size="14.00">home</text>
<text text-anchor="start" x="588" y="-750.3" font-family="Times,serif" font-size="14.00">index</text>
<text text-anchor="start" x="588" y="-735.3" font-family="Times,serif" font-size="14.00">new</text>
<text text-anchor="start" x="588" y="-720.3" font-family="Times,serif" font-size="14.00">report</text>
<text text-anchor="start" x="588" y="-705.3" font-family="Times,serif" font-size="14.00">update</text>
<polyline fill="none" stroke="black" points="580,-697.5 732,-697.5 "/>
<polyline fill="none" stroke="black" points="580,-673.5 732,-673.5 "/>
<text text-anchor="start" x="588" y="-658.3" font-family="Times,serif" font-size="14.00">_layout</text>
<text text-anchor="start" x="588" y="-643.3" font-family="Times,serif" font-size="14.00">set_vip_reference</text>
<text text-anchor="start" x="588" y="-628.3" font-family="Times,serif" font-size="14.00">vip_reference_params</text>
</g>
<!-- VipRefSummariesController -->
<g id="node20" class="node"><title>VipRefSummariesController</title>
<path fill="none" stroke="black" d="M572,-360.5C572,-360.5 722,-360.5 722,-360.5 728,-360.5 734,-366.5 734,-372.5 734,-372.5 734,-576.5 734,-576.5 734,-582.5 728,-588.5 722,-588.5 722,-588.5 572,-588.5 572,-588.5 566,-588.5 560,-582.5 560,-576.5 560,-576.5 560,-372.5 560,-372.5 560,-366.5 566,-360.5 572,-360.5"/>
<text text-anchor="middle" x="647" y="-573.3" font-family="Times,serif" font-size="14.00">VipRefSummariesController</text>
<polyline fill="none" stroke="black" points="560,-565.5 734,-565.5 "/>
<text text-anchor="start" x="568" y="-550.3" font-family="Times,serif" font-size="14.00">create</text>
<text text-anchor="start" x="568" y="-535.3" font-family="Times,serif" font-size="14.00">destroy</text>
<text text-anchor="start" x="568" y="-520.3" font-family="Times,serif" font-size="14.00">edit</text>
<text text-anchor="start" x="568" y="-505.3" font-family="Times,serif" font-size="14.00">index</text>
<text text-anchor="start" x="568" y="-490.3" font-family="Times,serif" font-size="14.00">new</text>
<text text-anchor="start" x="568" y="-475.3" font-family="Times,serif" font-size="14.00">show</text>
<text text-anchor="start" x="568" y="-460.3" font-family="Times,serif" font-size="14.00">update</text>
<polyline fill="none" stroke="black" points="560,-452.5 734,-452.5 "/>
<polyline fill="none" stroke="black" points="560,-428.5 734,-428.5 "/>
<text text-anchor="start" x="568" y="-413.3" font-family="Times,serif" font-size="14.00">_layout</text>
<text text-anchor="start" x="568" y="-398.3" font-family="Times,serif" font-size="14.00">set_vip_ref_summary</text>
<text text-anchor="start" x="568" y="-383.3" font-family="Times,serif" font-size="14.00">set_vip_reference</text>
<text text-anchor="start" x="568" y="-368.3" font-family="Times,serif" font-size="14.00">vip_ref_summaries_params</text>
</g>
<!-- ComplaintMovementsController -->
<g id="node21" class="node"><title>ComplaintMovementsController</title>
<path fill="none" stroke="black" d="M452,-140.5C452,-140.5 623,-140.5 623,-140.5 629,-140.5 635,-146.5 635,-152.5 635,-152.5 635,-311.5 635,-311.5 635,-317.5 629,-323.5 623,-323.5 623,-323.5 452,-323.5 452,-323.5 446,-323.5 440,-317.5 440,-311.5 440,-311.5 440,-152.5 440,-152.5 440,-146.5 446,-140.5 452,-140.5"/>
<text text-anchor="middle" x="537.5" y="-308.3" font-family="Times,serif" font-size="14.00">ComplaintMovementsController</text>
<polyline fill="none" stroke="black" points="440,-300.5 635,-300.5 "/>
<text text-anchor="start" x="448" y="-285.3" font-family="Times,serif" font-size="14.00">create</text>
<text text-anchor="start" x="448" y="-270.3" font-family="Times,serif" font-size="14.00">delete</text>
<text text-anchor="start" x="448" y="-255.3" font-family="Times,serif" font-size="14.00">index</text>
<text text-anchor="start" x="448" y="-240.3" font-family="Times,serif" font-size="14.00">new</text>
<text text-anchor="start" x="448" y="-225.3" font-family="Times,serif" font-size="14.00">update</text>
<polyline fill="none" stroke="black" points="440,-217.5 635,-217.5 "/>
<polyline fill="none" stroke="black" points="440,-193.5 635,-193.5 "/>
<text text-anchor="start" x="448" y="-178.3" font-family="Times,serif" font-size="14.00">_layout</text>
<text text-anchor="start" x="448" y="-163.3" font-family="Times,serif" font-size="14.00">complaint_params</text>
<text text-anchor="start" x="448" y="-148.3" font-family="Times,serif" font-size="14.00">set_complaint</text>
</g>
</g>
</svg>
