<?xml version="1.0" encoding="UTF-8" standalone="no"?>
<!DOCTYPE svg PUBLIC "-//W3C//DTD SVG 1.1//EN"
 "http://www.w3.org/Graphics/SVG/1.1/DTD/svg11.dtd">
<!-- Generated by graphviz version 2.36.0 (20140111.2315)
 -->
<!-- Title: models_diagram Pages: 1 -->
<svg width="1663pt" height="230pt"
 viewBox="0.00 0.00 1663.00 230.00" xmlns="http://www.w3.org/2000/svg" xmlns:xlink="http://www.w3.org/1999/xlink">
<g id="graph0" class="graph" transform="scale(1 1) rotate(0) translate(4 226)">
<title>models_diagram</title>
<polygon fill="none" stroke="none" points="-4,4 -4,-226 1659,-226 1659,4 -4,4"/>
<!-- _diagram_info -->
<g id="node1" class="node"><title>_diagram_info</title>
<text text-anchor="start" x="8" y="-207.6" font-family="Times,serif" font-size="13.00">Models diagram</text>
<text text-anchor="start" x="8" y="-193.6" font-family="Times,serif" font-size="13.00">Date: Sep 14 2015 &#45; 22:38</text>
<text text-anchor="start" x="8" y="-179.6" font-family="Times,serif" font-size="13.00">Migration version: 20150907073129</text>
<text text-anchor="start" x="8" y="-165.6" font-family="Times,serif" font-size="13.00">Generated by RailRoady 1.3.1</text>
<text text-anchor="start" x="8" y="-151.6" font-family="Times,serif" font-size="13.00">http://railroady.prestonlee.com</text>
</g>
<!-- Country -->
<g id="node2" class="node"><title>Country</title>
<ellipse fill="none" stroke="black" cx="272" cy="-183" rx="39.4691" ry="18"/>
<text text-anchor="middle" x="272" y="-179.3" font-family="Times,serif" font-size="14.00">Country</text>
</g>
<!-- State -->
<g id="node4" class="node"><title>State</title>
<ellipse fill="none" stroke="black" cx="272" cy="-90" rx="28.3955" ry="18"/>
<text text-anchor="middle" x="272" y="-86.3" font-family="Times,serif" font-size="14.00">State</text>
</g>
<!-- Country&#45;&gt;State -->
<g id="edge1" class="edge"><title>Country&#45;&gt;State</title>
<path fill="none" stroke="#a8efdc" d="M272,-156.729C272,-144.725 272,-130.362 272,-118.129"/>
<ellipse fill="none" stroke="#a8efdc" cx="272" cy="-160.884" rx="4" ry="4"/>
<polygon fill="#a8efdc" stroke="#a8efdc" points="272,-118.04 276.5,-108.04 272,-113.04 272,-108.04 272,-108.04 272,-108.04 272,-113.04 267.5,-108.04 272,-118.04 272,-118.04"/>
</g>
<!-- VipRefStatusType -->
<g id="node3" class="node"><title>VipRefStatusType</title>
<ellipse fill="none" stroke="black" cx="406" cy="-183" rx="76.0649" ry="18"/>
<text text-anchor="middle" x="406" y="-179.3" font-family="Times,serif" font-size="14.00">VipRefStatusType</text>
</g>
<!-- Sender -->
<g id="node5" class="node"><title>Sender</title>
<ellipse fill="none" stroke="black" cx="464" cy="-18" rx="35.1455" ry="18"/>
<text text-anchor="middle" x="464" y="-14.3" font-family="Times,serif" font-size="14.00">Sender</text>
</g>
<!-- Ability -->
<g id="node6" class="node"><title>Ability</title>
<polygon fill="none" stroke="black" points="856.25,-201 801.75,-201 801.75,-165 856.25,-165 856.25,-201"/>
<text text-anchor="middle" x="829" y="-179.3" font-family="Times,serif" font-size="14.00">Ability</text>
</g>
<!-- ComplaintType -->
<g id="node7" class="node"><title>ComplaintType</title>
<ellipse fill="none" stroke="black" cx="950" cy="-183" rx="65.9423" ry="18"/>
<text text-anchor="middle" x="950" y="-179.3" font-family="Times,serif" font-size="14.00">ComplaintType</text>
</g>
<!-- Complaint -->
<g id="node12" class="node"><title>Complaint</title>
<ellipse fill="none" stroke="black" cx="950" cy="-90" rx="48.1437" ry="18"/>
<text text-anchor="middle" x="950" y="-86.3" font-family="Times,serif" font-size="14.00">Complaint</text>
</g>
<!-- ComplaintType&#45;&gt;Complaint -->
<g id="edge2" class="edge"><title>ComplaintType&#45;&gt;Complaint</title>
<path fill="none" stroke="#5315ec" d="M950,-156.729C950,-144.725 950,-130.362 950,-118.129"/>
<ellipse fill="none" stroke="#5315ec" cx="950" cy="-160.884" rx="4" ry="4"/>
<polygon fill="#5315ec" stroke="#5315ec" points="950,-118.04 954.5,-108.04 950,-113.04 950,-108.04 950,-108.04 950,-108.04 950,-113.04 945.5,-108.04 950,-118.04 950,-118.04"/>
</g>
<!-- VipRefMovement -->
<g id="node8" class="node"><title>VipRefMovement</title>
<ellipse fill="none" stroke="black" cx="592" cy="-18" rx="75.0904" ry="18"/>
<text text-anchor="middle" x="592" y="-14.3" font-family="Times,serif" font-size="14.00">VipRefMovement</text>
</g>
<!-- Home -->
<g id="node9" class="node"><title>Home</title>
<ellipse fill="none" stroke="black" cx="1083" cy="-183" rx="32.2457" ry="18"/>
<text text-anchor="middle" x="1083" y="-179.3" font-family="Times,serif" font-size="14.00">Home</text>
</g>
<!-- Section -->
<g id="node10" class="node"><title>Section</title>
<ellipse fill="none" stroke="black" cx="537" cy="-183" rx="37.0701" ry="18"/>
<text text-anchor="middle" x="537" y="-179.3" font-family="Times,serif" font-size="14.00">Section</text>
</g>
<!-- VipReference -->
<g id="node18" class="node"><title>VipReference</title>
<ellipse fill="none" stroke="black" cx="592" cy="-90" rx="59.1941" ry="18"/>
<text text-anchor="middle" x="592" y="-86.3" font-family="Times,serif" font-size="14.00">VipReference</text>
</g>
<!-- Section&#45;&gt;VipReference -->
<g id="edge3" class="edge"><title>Section&#45;&gt;VipReference</title>
<path fill="none" stroke="#8d6553" d="M551.262,-158.403C559.035,-145.543 568.66,-129.616 576.603,-116.475"/>
<ellipse fill="none" stroke="#8d6553" cx="549.157" cy="-161.886" rx="4.00002" ry="4.00002"/>
<polygon fill="#8d6553" stroke="#8d6553" points="576.617,-116.451 585.641,-110.221 579.204,-112.172 581.79,-107.893 581.79,-107.893 581.79,-107.893 579.204,-112.172 577.939,-105.565 576.617,-116.451 576.617,-116.451"/>
</g>
<!-- Office -->
<g id="node11" class="node"><title>Office</title>
<ellipse fill="none" stroke="black" cx="1198" cy="-183" rx="33.2209" ry="18"/>
<text text-anchor="middle" x="1198" y="-179.3" font-family="Times,serif" font-size="14.00">Office</text>
</g>
<!-- Contact -->
<g id="node22" class="node"><title>Contact</title>
<ellipse fill="none" stroke="black" cx="1198" cy="-90" rx="38.0212" ry="18"/>
<text text-anchor="middle" x="1198" y="-86.3" font-family="Times,serif" font-size="14.00">Contact</text>
</g>
<!-- Office&#45;&gt;Contact -->
<g id="edge4" class="edge"><title>Office&#45;&gt;Contact</title>
<path fill="none" stroke="#44d8f9" d="M1198,-156.729C1198,-144.725 1198,-130.362 1198,-118.129"/>
<ellipse fill="none" stroke="#44d8f9" cx="1198" cy="-160.884" rx="4" ry="4"/>
<polygon fill="#44d8f9" stroke="#44d8f9" points="1198,-118.04 1202.5,-108.04 1198,-113.04 1198,-108.04 1198,-108.04 1198,-108.04 1198,-113.04 1193.5,-108.04 1198,-118.04 1198,-118.04"/>
</g>
<!-- ComplaintMovement -->
<g id="node17" class="node"><title>ComplaintMovement</title>
<ellipse fill="none" stroke="black" cx="934" cy="-18" rx="87.1385" ry="18"/>
<text text-anchor="middle" x="934" y="-14.3" font-family="Times,serif" font-size="14.00">ComplaintMovement</text>
</g>
<!-- Complaint&#45;&gt;ComplaintMovement -->
<g id="edge5" class="edge"><title>Complaint&#45;&gt;ComplaintMovement</title>
<path fill="none" stroke="#19f7ed" d="M944.283,-63.9868C942.971,-58.2493 941.571,-52.1211 940.238,-46.2929"/>
<ellipse fill="none" stroke="#19f7ed" cx="945.236" cy="-68.1555" rx="4.00001" ry="4.00001"/>
<polygon fill="#19f7ed" stroke="#19f7ed" points="940.177,-46.0239 942.336,-35.2726 939.063,-41.1496 937.949,-36.2753 937.949,-36.2753 937.949,-36.2753 939.063,-41.1496 933.562,-37.278 940.177,-46.0239 940.177,-46.0239"/>
</g>
<!-- ComplaintStatus -->
<g id="node19" class="node"><title>ComplaintStatus</title>
<ellipse fill="none" stroke="black" cx="1109" cy="-18" rx="69.3156" ry="18"/>
<text text-anchor="middle" x="1109" y="-14.3" font-family="Times,serif" font-size="14.00">ComplaintStatus</text>
</g>
<!-- Complaint&#45;&gt;ComplaintStatus -->
<g id="edge6" class="edge"><title>Complaint&#45;&gt;ComplaintStatus</title>
<path fill="none" stroke="#4ab2e5" d="M987.523,-72.4805C1011.05,-62.123 1041.45,-48.7378 1065.96,-37.9495"/>
<ellipse fill="none" stroke="#4ab2e5" cx="983.568" cy="-74.2218" rx="4.00002" ry="4.00002"/>
<polygon fill="#4ab2e5" stroke="#4ab2e5" points="1066.22,-37.8331 1077.19,-37.9223 1070.8,-35.8184 1075.37,-33.8037 1075.37,-33.8037 1075.37,-33.8037 1070.8,-35.8184 1073.56,-29.6852 1066.22,-37.8331 1066.22,-37.8331"/>
</g>
<!-- Test -->
<g id="node13" class="node"><title>Test</title>
<ellipse fill="none" stroke="black" cx="1356" cy="-183" rx="27" ry="18"/>
<text text-anchor="middle" x="1356" y="-179.3" font-family="Times,serif" font-size="14.00">Test</text>
</g>
<!-- Handler -->
<g id="node14" class="node"><title>Handler</title>
<ellipse fill="none" stroke="black" cx="1293" cy="-90" rx="38.4949" ry="18"/>
<text text-anchor="middle" x="1293" y="-86.3" font-family="Times,serif" font-size="14.00">Handler</text>
</g>
<!-- VipRefSummary -->
<g id="node15" class="node"><title>VipRefSummary</title>
<ellipse fill="none" stroke="black" cx="757" cy="-18" rx="71.2405" ry="18"/>
<text text-anchor="middle" x="757" y="-14.3" font-family="Times,serif" font-size="14.00">VipRefSummary</text>
</g>
<!-- VipRefStatus -->
<g id="node16" class="node"><title>VipRefStatus</title>
<ellipse fill="none" stroke="black" cx="1459" cy="-183" rx="57.2688" ry="18"/>
<text text-anchor="middle" x="1459" y="-179.3" font-family="Times,serif" font-size="14.00">VipRefStatus</text>
</g>
<!-- VipReference&#45;&gt;Sender -->
<g id="edge9" class="edge"><title>VipReference&#45;&gt;Sender</title>
<path fill="none" stroke="#dbecbf" d="M557.24,-69.9904C537.577,-59.2375 513.224,-45.9196 494.338,-35.5913"/>
<ellipse fill="none" stroke="#dbecbf" cx="561.031" cy="-72.064" rx="4.00002" ry="4.00002"/>
<ellipse fill="#dbecbf" stroke="#dbecbf" cx="490.64" cy="-33.5685" rx="4.00002" ry="4.00002"/>
</g>
<!-- VipReference&#45;&gt;VipRefMovement -->
<g id="edge7" class="edge"><title>VipReference&#45;&gt;VipRefMovement</title>
<path fill="none" stroke="#7d9764" d="M592,-63.6398C592,-58.0629 592,-52.1319 592,-46.4761"/>
<ellipse fill="none" stroke="#7d9764" cx="592" cy="-67.6966" rx="4" ry="4"/>
<polygon fill="#7d9764" stroke="#7d9764" points="592,-46.1043 596.5,-36.1043 592,-41.1043 592,-36.1043 592,-36.1043 592,-36.1043 592,-41.1043 587.5,-36.1044 592,-46.1043 592,-46.1043"/>
</g>
<!-- VipReference&#45;&gt;VipRefSummary -->
<g id="edge8" class="edge"><title>VipReference&#45;&gt;VipRefSummary</title>
<path fill="none" stroke="#02af6e" d="M632.498,-71.8191C656.843,-61.4909 687.843,-48.3394 712.819,-37.7434"/>
<ellipse fill="none" stroke="#02af6e" cx="628.676" cy="-73.4405" rx="4.00002" ry="4.00002"/>
<polygon fill="#02af6e" stroke="#02af6e" points="712.864,-37.7243 723.828,-37.9614 717.467,-35.7716 722.07,-33.8188 722.07,-33.8188 722.07,-33.8188 717.467,-35.7716 720.313,-29.6762 712.864,-37.7243 712.864,-37.7243"/>
</g>
<!-- User -->
<g id="node20" class="node"><title>User</title>
<ellipse fill="none" stroke="black" cx="1284" cy="-183" rx="26.949" ry="18"/>
<text text-anchor="middle" x="1284" y="-179.3" font-family="Times,serif" font-size="14.00">User</text>
</g>
<!-- User&#45;&gt;Handler -->
<g id="edge11" class="edge"><title>User&#45;&gt;Handler</title>
<path fill="none" stroke="#fac76b" d="M1286.5,-156.729C1287.75,-144.118 1289.25,-128.905 1290.5,-116.292"/>
<ellipse fill="none" stroke="#fac76b" cx="1286.09" cy="-160.903" rx="4" ry="4"/>
<ellipse fill="#fac76b" stroke="#fac76b" cx="1290.92" cy="-112.02" rx="4" ry="4"/>
</g>
<!-- User&#45;&gt;Contact -->
<g id="edge10" class="edge"><title>User&#45;&gt;Contact</title>
<path fill="none" stroke="#975d7f" d="M1264.3,-161.156C1250.63,-146.689 1232.45,-127.456 1218.59,-112.787"/>
<ellipse fill="none" stroke="#975d7f" cx="1267.44" cy="-164.472" rx="4.00002" ry="4.00002"/>
<ellipse fill="#975d7f" stroke="#975d7f" cx="1215.69" cy="-109.714" rx="4.00002" ry="4.00002"/>
</g>
<!-- SearchVipRef -->
<g id="node21" class="node"><title>SearchVipRef</title>
<ellipse fill="none" stroke="black" cx="1595" cy="-183" rx="60.1672" ry="18"/>
<text text-anchor="middle" x="1595" y="-179.3" font-family="Times,serif" font-size="14.00">SearchVipRef</text>
</g>
<!-- VipCategory -->
<g id="node23" class="node"><title>VipCategory</title>
<ellipse fill="none" stroke="black" cx="648" cy="-183" rx="55.3436" ry="18"/>
<text text-anchor="middle" x="648" y="-179.3" font-family="Times,serif" font-size="14.00">VipCategory</text>
</g>
<!-- VipCategory&#45;&gt;VipReference -->
<g id="edge12" class="edge"><title>VipCategory&#45;&gt;VipReference</title>
<path fill="none" stroke="#f5d9e1" d="M633.479,-158.403C625.565,-145.543 615.764,-129.616 607.677,-116.475"/>
<ellipse fill="none" stroke="#f5d9e1" cx="635.632" cy="-161.903" rx="4.00002" ry="4.00002"/>
<polygon fill="#f5d9e1" stroke="#f5d9e1" points="607.637,-116.41 606.228,-105.535 605.016,-112.151 602.396,-107.893 602.396,-107.893 602.396,-107.893 605.016,-112.151 598.563,-110.252 607.637,-116.41 607.637,-116.41"/>
</g>
<!-- Status -->
<g id="node24" class="node"><title>Status</title>
<ellipse fill="none" stroke="black" cx="1109" cy="-90" rx="32.2457" ry="18"/>
<text text-anchor="middle" x="1109" y="-86.3" font-family="Times,serif" font-size="14.00">Status</text>
</g>
<!-- Status&#45;&gt;ComplaintStatus -->
<g id="edge13" class="edge"><title>Status&#45;&gt;ComplaintStatus</title>
<path fill="none" stroke="#86a5b4" d="M1109,-63.6398C1109,-58.0629 1109,-52.1319 1109,-46.4761"/>
<ellipse fill="none" stroke="#86a5b4" cx="1109" cy="-67.6966" rx="4" ry="4"/>
<polygon fill="#86a5b4" stroke="#86a5b4" points="1109,-46.1043 1113.5,-36.1043 1109,-41.1043 1109,-36.1043 1109,-36.1043 1109,-36.1043 1109,-41.1043 1104.5,-36.1044 1109,-46.1043 1109,-46.1043"/>
</g>
</g>
</svg>
