<?xml version="1.0" encoding="UTF-8" standalone="no"?>
<!DOCTYPE svg PUBLIC "-//W3C//DTD SVG 1.1//EN"
 "http://www.w3.org/Graphics/SVG/1.1/DTD/svg11.dtd">
<!-- Generated by graphviz version 2.36.0 (20140111.2315)
 -->
<!-- Title: models_diagram Pages: 1 -->
<svg width="2067pt" height="912pt"
 viewBox="0.00 0.00 2067.00 912.00" xmlns="http://www.w3.org/2000/svg" xmlns:xlink="http://www.w3.org/1999/xlink">
<g id="graph0" class="graph" transform="scale(1 1) rotate(0) translate(4 908)">
<title>models_diagram</title>
<polygon fill="none" stroke="none" points="-4,4 -4,-908 2063,-908 2063,4 -4,4"/>
<!-- _diagram_info -->
<g id="node1" class="node"><title>_diagram_info</title>
<text text-anchor="start" x="8" y="-799.6" font-family="Times,serif" font-size="13.00">Models diagram</text>
<text text-anchor="start" x="8" y="-785.6" font-family="Times,serif" font-size="13.00">Date: Sep 14 2015 &#45; 22:38</text>
<text text-anchor="start" x="8" y="-771.6" font-family="Times,serif" font-size="13.00">Migration version: 20150907073129</text>
<text text-anchor="start" x="8" y="-757.6" font-family="Times,serif" font-size="13.00">Generated by RailRoady 1.3.1</text>
<text text-anchor="start" x="8" y="-743.6" font-family="Times,serif" font-size="13.00">http://railroady.prestonlee.com</text>
</g>
<!-- Country -->
<g id="node2" class="node"><title>Country</title>
<path fill="none" stroke="black" d="M244.5,-722C244.5,-722 351.5,-722 351.5,-722 357.5,-722 363.5,-728 363.5,-734 363.5,-734 363.5,-816 363.5,-816 363.5,-822 357.5,-828 351.5,-828 351.5,-828 244.5,-828 244.5,-828 238.5,-828 232.5,-822 232.5,-816 232.5,-816 232.5,-734 232.5,-734 232.5,-728 238.5,-722 244.5,-722"/>
<text text-anchor="middle" x="298" y="-812.8" font-family="Times,serif" font-size="14.00">Country</text>
<polyline fill="none" stroke="black" points="232.5,-805 363.5,-805 "/>
<text text-anchor="start" x="240.5" y="-789.8" font-family="Times,serif" font-size="14.00">id :integer</text>
<text text-anchor="start" x="240.5" y="-774.8" font-family="Times,serif" font-size="14.00">name :string</text>
<text text-anchor="start" x="240.5" y="-759.8" font-family="Times,serif" font-size="14.00">code :string</text>
<text text-anchor="start" x="240.5" y="-744.8" font-family="Times,serif" font-size="14.00">created_at :datetime</text>
<text text-anchor="start" x="240.5" y="-729.8" font-family="Times,serif" font-size="14.00">updated_at :datetime</text>
</g>
<!-- State -->
<g id="node4" class="node"><title>State</title>
<path fill="none" stroke="black" d="M244.5,-398.5C244.5,-398.5 351.5,-398.5 351.5,-398.5 357.5,-398.5 363.5,-404.5 363.5,-410.5 363.5,-410.5 363.5,-507.5 363.5,-507.5 363.5,-513.5 357.5,-519.5 351.5,-519.5 351.5,-519.5 244.5,-519.5 244.5,-519.5 238.5,-519.5 232.5,-513.5 232.5,-507.5 232.5,-507.5 232.5,-410.5 232.5,-410.5 232.5,-404.5 238.5,-398.5 244.5,-398.5"/>
<text text-anchor="middle" x="298" y="-504.3" font-family="Times,serif" font-size="14.00">State</text>
<polyline fill="none" stroke="black" points="232.5,-496.5 363.5,-496.5 "/>
<text text-anchor="start" x="240.5" y="-481.3" font-family="Times,serif" font-size="14.00">id :integer</text>
<text text-anchor="start" x="240.5" y="-466.3" font-family="Times,serif" font-size="14.00">name :string</text>
<text text-anchor="start" x="240.5" y="-451.3" font-family="Times,serif" font-size="14.00">code :string</text>
<text text-anchor="start" x="240.5" y="-436.3" font-family="Times,serif" font-size="14.00">country_id :integer</text>
<text text-anchor="start" x="240.5" y="-421.3" font-family="Times,serif" font-size="14.00">created_at :datetime</text>
<text text-anchor="start" x="240.5" y="-406.3" font-family="Times,serif" font-size="14.00">updated_at :datetime</text>
</g>
<!-- Country&#45;&gt;State -->
<g id="edge1" class="edge"><title>Country&#45;&gt;State</title>
<path fill="none" stroke="#da1524" d="M298,-713.754C298,-661.157 298,-584.813 298,-529.616"/>
<ellipse fill="none" stroke="#da1524" cx="298" cy="-717.797" rx="4" ry="4"/>
<polygon fill="#da1524" stroke="#da1524" points="298,-529.566 302.5,-519.565 298,-524.566 298,-519.566 298,-519.566 298,-519.566 298,-524.566 293.5,-519.566 298,-529.566 298,-529.566"/>
</g>
<!-- VipRefStatusType -->
<g id="node3" class="node"><title>VipRefStatusType</title>
<path fill="none" stroke="black" d="M393.5,-729.5C393.5,-729.5 500.5,-729.5 500.5,-729.5 506.5,-729.5 512.5,-735.5 512.5,-741.5 512.5,-741.5 512.5,-808.5 512.5,-808.5 512.5,-814.5 506.5,-820.5 500.5,-820.5 500.5,-820.5 393.5,-820.5 393.5,-820.5 387.5,-820.5 381.5,-814.5 381.5,-808.5 381.5,-808.5 381.5,-741.5 381.5,-741.5 381.5,-735.5 387.5,-729.5 393.5,-729.5"/>
<text text-anchor="middle" x="447" y="-805.3" font-family="Times,serif" font-size="14.00">VipRefStatusType</text>
<polyline fill="none" stroke="black" points="381.5,-797.5 512.5,-797.5 "/>
<text text-anchor="start" x="389.5" y="-782.3" font-family="Times,serif" font-size="14.00">id :integer</text>
<text text-anchor="start" x="389.5" y="-767.3" font-family="Times,serif" font-size="14.00">name :string</text>
<text text-anchor="start" x="389.5" y="-752.3" font-family="Times,serif" font-size="14.00">created_at :datetime</text>
<text text-anchor="start" x="389.5" y="-737.3" font-family="Times,serif" font-size="14.00">updated_at :datetime</text>
</g>
<!-- Sender -->
<g id="node5" class="node"><title>Sender</title>
<path fill="none" stroke="black" d="M379.5,-0.5C379.5,-0.5 508.5,-0.5 508.5,-0.5 514.5,-0.5 520.5,-6.5 520.5,-12.5 520.5,-12.5 520.5,-259.5 520.5,-259.5 520.5,-265.5 514.5,-271.5 508.5,-271.5 508.5,-271.5 379.5,-271.5 379.5,-271.5 373.5,-271.5 367.5,-265.5 367.5,-259.5 367.5,-259.5 367.5,-12.5 367.5,-12.5 367.5,-6.5 373.5,-0.5 379.5,-0.5"/>
<text text-anchor="middle" x="444" y="-256.3" font-family="Times,serif" font-size="14.00">Sender</text>
<polyline fill="none" stroke="black" points="367.5,-248.5 520.5,-248.5 "/>
<text text-anchor="start" x="375.5" y="-233.3" font-family="Times,serif" font-size="14.00">id :integer</text>
<text text-anchor="start" x="375.5" y="-218.3" font-family="Times,serif" font-size="14.00">name :string</text>
<text text-anchor="start" x="375.5" y="-203.3" font-family="Times,serif" font-size="14.00">designation :string</text>
<text text-anchor="start" x="375.5" y="-188.3" font-family="Times,serif" font-size="14.00">org :string</text>
<text text-anchor="start" x="375.5" y="-173.3" font-family="Times,serif" font-size="14.00">address1 :string</text>
<text text-anchor="start" x="375.5" y="-158.3" font-family="Times,serif" font-size="14.00">address2 :string</text>
<text text-anchor="start" x="375.5" y="-143.3" font-family="Times,serif" font-size="14.00">country :string</text>
<text text-anchor="start" x="375.5" y="-128.3" font-family="Times,serif" font-size="14.00">state :string</text>
<text text-anchor="start" x="375.5" y="-113.3" font-family="Times,serif" font-size="14.00">city :string</text>
<text text-anchor="start" x="375.5" y="-98.3" font-family="Times,serif" font-size="14.00">pincode :string</text>
<text text-anchor="start" x="375.5" y="-83.3" font-family="Times,serif" font-size="14.00">mobile :string</text>
<text text-anchor="start" x="375.5" y="-68.3" font-family="Times,serif" font-size="14.00">email :string</text>
<text text-anchor="start" x="375.5" y="-53.3" font-family="Times,serif" font-size="14.00">landline :string</text>
<text text-anchor="start" x="375.5" y="-38.3" font-family="Times,serif" font-size="14.00">created_at :datetime</text>
<text text-anchor="start" x="375.5" y="-23.3" font-family="Times,serif" font-size="14.00">updated_at :datetime</text>
<text text-anchor="start" x="375.5" y="-8.3" font-family="Times,serif" font-size="14.00">vip_reference_id :integer</text>
</g>
<!-- Ability -->
<g id="node6" class="node"><title>Ability</title>
<polygon fill="none" stroke="black" points="828.5,-752 828.5,-798 883.5,-798 883.5,-752 828.5,-752"/>
<text text-anchor="middle" x="856" y="-782.8" font-family="Times,serif" font-size="14.00">Ability</text>
<polyline fill="none" stroke="black" points="828.5,-775 883.5,-775 "/>
<text text-anchor="middle" x="856" y="-759.8" font-family="Times,serif" font-size="14.00"> </text>
</g>
<!-- ComplaintType -->
<g id="node7" class="node"><title>ComplaintType</title>
<path fill="none" stroke="black" d="M913.5,-707C913.5,-707 1020.5,-707 1020.5,-707 1026.5,-707 1032.5,-713 1032.5,-719 1032.5,-719 1032.5,-831 1032.5,-831 1032.5,-837 1026.5,-843 1020.5,-843 1020.5,-843 913.5,-843 913.5,-843 907.5,-843 901.5,-837 901.5,-831 901.5,-831 901.5,-719 901.5,-719 901.5,-713 907.5,-707 913.5,-707"/>
<text text-anchor="middle" x="967" y="-827.8" font-family="Times,serif" font-size="14.00">ComplaintType</text>
<polyline fill="none" stroke="black" points="901.5,-820 1032.5,-820 "/>
<text text-anchor="start" x="909.5" y="-804.8" font-family="Times,serif" font-size="14.00">id :integer</text>
<text text-anchor="start" x="909.5" y="-789.8" font-family="Times,serif" font-size="14.00">problem :string</text>
<text text-anchor="start" x="909.5" y="-774.8" font-family="Times,serif" font-size="14.00">solution :string</text>
<text text-anchor="start" x="909.5" y="-759.8" font-family="Times,serif" font-size="14.00">handler_id :integer</text>
<text text-anchor="start" x="909.5" y="-744.8" font-family="Times,serif" font-size="14.00">level :string</text>
<text text-anchor="start" x="909.5" y="-729.8" font-family="Times,serif" font-size="14.00">created_at :datetime</text>
<text text-anchor="start" x="909.5" y="-714.8" font-family="Times,serif" font-size="14.00">updated_at :datetime</text>
</g>
<!-- Complaint -->
<g id="node12" class="node"><title>Complaint</title>
<path fill="none" stroke="black" d="M897,-346C897,-346 1037,-346 1037,-346 1043,-346 1049,-352 1049,-358 1049,-358 1049,-560 1049,-560 1049,-566 1043,-572 1037,-572 1037,-572 897,-572 897,-572 891,-572 885,-566 885,-560 885,-560 885,-358 885,-358 885,-352 891,-346 897,-346"/>
<text text-anchor="middle" x="967" y="-556.8" font-family="Times,serif" font-size="14.00">Complaint</text>
<polyline fill="none" stroke="black" points="885,-549 1049,-549 "/>
<text text-anchor="start" x="893" y="-533.8" font-family="Times,serif" font-size="14.00">id :integer</text>
<text text-anchor="start" x="893" y="-518.8" font-family="Times,serif" font-size="14.00">complaint_type_id :integer</text>
<text text-anchor="start" x="893" y="-503.8" font-family="Times,serif" font-size="14.00">remarks :string</text>
<text text-anchor="start" x="893" y="-488.8" font-family="Times,serif" font-size="14.00">location :string</text>
<text text-anchor="start" x="893" y="-473.8" font-family="Times,serif" font-size="14.00">date_since :date</text>
<text text-anchor="start" x="893" y="-458.8" font-family="Times,serif" font-size="14.00">user_id :integer</text>
<text text-anchor="start" x="893" y="-443.8" font-family="Times,serif" font-size="14.00">created_at :datetime</text>
<text text-anchor="start" x="893" y="-428.8" font-family="Times,serif" font-size="14.00">updated_at :datetime</text>
<text text-anchor="start" x="893" y="-413.8" font-family="Times,serif" font-size="14.00">status_id :integer</text>
<text text-anchor="start" x="893" y="-398.8" font-family="Times,serif" font-size="14.00">room_no :string</text>
<text text-anchor="start" x="893" y="-383.8" font-family="Times,serif" font-size="14.00">contact_no :string</text>
<text text-anchor="start" x="893" y="-368.8" font-family="Times,serif" font-size="14.00">intercom :string</text>
<text text-anchor="start" x="893" y="-353.8" font-family="Times,serif" font-size="14.00">name :string</text>
</g>
<!-- ComplaintType&#45;&gt;Complaint -->
<g id="edge2" class="edge"><title>ComplaintType&#45;&gt;Complaint</title>
<path fill="none" stroke="#2e56b6" d="M967,-698.211C967,-663.487 967,-621.449 967,-582.413"/>
<ellipse fill="none" stroke="#2e56b6" cx="967" cy="-702.639" rx="4" ry="4"/>
<polygon fill="#2e56b6" stroke="#2e56b6" points="967,-582.027 971.5,-572.027 967,-577.027 967,-572.027 967,-572.027 967,-572.027 967,-577.027 962.5,-572.027 967,-582.027 967,-582.027"/>
</g>
<!-- VipRefMovement -->
<g id="node8" class="node"><title>VipRefMovement</title>
<path fill="none" stroke="black" d="M550.5,-45.5C550.5,-45.5 679.5,-45.5 679.5,-45.5 685.5,-45.5 691.5,-51.5 691.5,-57.5 691.5,-57.5 691.5,-214.5 691.5,-214.5 691.5,-220.5 685.5,-226.5 679.5,-226.5 679.5,-226.5 550.5,-226.5 550.5,-226.5 544.5,-226.5 538.5,-220.5 538.5,-214.5 538.5,-214.5 538.5,-57.5 538.5,-57.5 538.5,-51.5 544.5,-45.5 550.5,-45.5"/>
<text text-anchor="middle" x="615" y="-211.3" font-family="Times,serif" font-size="14.00">VipRefMovement</text>
<polyline fill="none" stroke="black" points="538.5,-203.5 691.5,-203.5 "/>
<text text-anchor="start" x="546.5" y="-188.3" font-family="Times,serif" font-size="14.00">id :integer</text>
<text text-anchor="start" x="546.5" y="-173.3" font-family="Times,serif" font-size="14.00">sent_to :integer</text>
<text text-anchor="start" x="546.5" y="-158.3" font-family="Times,serif" font-size="14.00">sent_on :datetime</text>
<text text-anchor="start" x="546.5" y="-143.3" font-family="Times,serif" font-size="14.00">remarks :text</text>
<text text-anchor="start" x="546.5" y="-128.3" font-family="Times,serif" font-size="14.00">sent_by :integer</text>
<text text-anchor="start" x="546.5" y="-113.3" font-family="Times,serif" font-size="14.00">vip_reference_id :integer</text>
<text text-anchor="start" x="546.5" y="-98.3" font-family="Times,serif" font-size="14.00">created_at :datetime</text>
<text text-anchor="start" x="546.5" y="-83.3" font-family="Times,serif" font-size="14.00">updated_at :datetime</text>
<text text-anchor="start" x="546.5" y="-68.3" font-family="Times,serif" font-size="14.00">read_flag :boolean</text>
<text text-anchor="start" x="546.5" y="-53.3" font-family="Times,serif" font-size="14.00">read_time :datetime</text>
</g>
<!-- Home -->
<g id="node9" class="node"><title>Home</title>
<path fill="none" stroke="black" d="M1075.5,-729.5C1075.5,-729.5 1182.5,-729.5 1182.5,-729.5 1188.5,-729.5 1194.5,-735.5 1194.5,-741.5 1194.5,-741.5 1194.5,-808.5 1194.5,-808.5 1194.5,-814.5 1188.5,-820.5 1182.5,-820.5 1182.5,-820.5 1075.5,-820.5 1075.5,-820.5 1069.5,-820.5 1063.5,-814.5 1063.5,-808.5 1063.5,-808.5 1063.5,-741.5 1063.5,-741.5 1063.5,-735.5 1069.5,-729.5 1075.5,-729.5"/>
<text text-anchor="middle" x="1129" y="-805.3" font-family="Times,serif" font-size="14.00">Home</text>
<polyline fill="none" stroke="black" points="1063.5,-797.5 1194.5,-797.5 "/>
<text text-anchor="start" x="1071.5" y="-782.3" font-family="Times,serif" font-size="14.00">id :integer</text>
<text text-anchor="start" x="1071.5" y="-767.3" font-family="Times,serif" font-size="14.00">name :string</text>
<text text-anchor="start" x="1071.5" y="-752.3" font-family="Times,serif" font-size="14.00">created_at :datetime</text>
<text text-anchor="start" x="1071.5" y="-737.3" font-family="Times,serif" font-size="14.00">updated_at :datetime</text>
</g>
<!-- Section -->
<g id="node10" class="node"><title>Section</title>
<path fill="none" stroke="black" d="M542.5,-722C542.5,-722 649.5,-722 649.5,-722 655.5,-722 661.5,-728 661.5,-734 661.5,-734 661.5,-816 661.5,-816 661.5,-822 655.5,-828 649.5,-828 649.5,-828 542.5,-828 542.5,-828 536.5,-828 530.5,-822 530.5,-816 530.5,-816 530.5,-734 530.5,-734 530.5,-728 536.5,-722 542.5,-722"/>
<text text-anchor="middle" x="596" y="-812.8" font-family="Times,serif" font-size="14.00">Section</text>
<polyline fill="none" stroke="black" points="530.5,-805 661.5,-805 "/>
<text text-anchor="start" x="538.5" y="-789.8" font-family="Times,serif" font-size="14.00">id :integer</text>
<text text-anchor="start" x="538.5" y="-774.8" font-family="Times,serif" font-size="14.00">name :string</text>
<text text-anchor="start" x="538.5" y="-759.8" font-family="Times,serif" font-size="14.00">short_name :string</text>
<text text-anchor="start" x="538.5" y="-744.8" font-family="Times,serif" font-size="14.00">created_at :datetime</text>
<text text-anchor="start" x="538.5" y="-729.8" font-family="Times,serif" font-size="14.00">updated_at :datetime</text>
</g>
<!-- VipReference -->
<g id="node18" class="node"><title>VipReference</title>
<path fill="none" stroke="black" d="M549,-308.5C549,-308.5 681,-308.5 681,-308.5 687,-308.5 693,-314.5 693,-320.5 693,-320.5 693,-597.5 693,-597.5 693,-603.5 687,-609.5 681,-609.5 681,-609.5 549,-609.5 549,-609.5 543,-609.5 537,-603.5 537,-597.5 537,-597.5 537,-320.5 537,-320.5 537,-314.5 543,-308.5 549,-308.5"/>
<text text-anchor="middle" x="615" y="-594.3" font-family="Times,serif" font-size="14.00">VipReference</text>
<polyline fill="none" stroke="black" points="537,-586.5 693,-586.5 "/>
<text text-anchor="start" x="545" y="-571.3" font-family="Times,serif" font-size="14.00">id :integer</text>
<text text-anchor="start" x="545" y="-556.3" font-family="Times,serif" font-size="14.00">letter_no :string</text>
<text text-anchor="start" x="545" y="-541.3" font-family="Times,serif" font-size="14.00">letter_date :date</text>
<text text-anchor="start" x="545" y="-526.3" font-family="Times,serif" font-size="14.00">subject :text</text>
<text text-anchor="start" x="545" y="-511.3" font-family="Times,serif" font-size="14.00">diaried_date :date</text>
<text text-anchor="start" x="545" y="-496.3" font-family="Times,serif" font-size="14.00">diaried_by :integer</text>
<text text-anchor="start" x="545" y="-481.3" font-family="Times,serif" font-size="14.00">sender_name :string</text>
<text text-anchor="start" x="545" y="-466.3" font-family="Times,serif" font-size="14.00">section_id :integer</text>
<text text-anchor="start" x="545" y="-451.3" font-family="Times,serif" font-size="14.00">vip_ref_status_id :integer</text>
<text text-anchor="start" x="545" y="-436.3" font-family="Times,serif" font-size="14.00">vip_category_id :integer</text>
<text text-anchor="start" x="545" y="-421.3" font-family="Times,serif" font-size="14.00">received_on :date</text>
<text text-anchor="start" x="545" y="-406.3" font-family="Times,serif" font-size="14.00">eoffice_receipt_no :string</text>
<text text-anchor="start" x="545" y="-391.3" font-family="Times,serif" font-size="14.00">eoffice_file_no :string</text>
<text text-anchor="start" x="545" y="-376.3" font-family="Times,serif" font-size="14.00">deleted :boolean</text>
<text text-anchor="start" x="545" y="-361.3" font-family="Times,serif" font-size="14.00">created_at :datetime</text>
<text text-anchor="start" x="545" y="-346.3" font-family="Times,serif" font-size="14.00">updated_at :datetime</text>
<text text-anchor="start" x="545" y="-331.3" font-family="Times,serif" font-size="14.00">summary :text</text>
<text text-anchor="start" x="545" y="-316.3" font-family="Times,serif" font-size="14.00">user_id :integer</text>
</g>
<!-- Section&#45;&gt;VipReference -->
<g id="edge3" class="edge"><title>Section&#45;&gt;VipReference</title>
<path fill="none" stroke="#f5780e" d="M599.655,-713.602C601.288,-686.601 603.3,-653.366 605.321,-619.952"/>
<ellipse fill="none" stroke="#f5780e" cx="599.4" cy="-717.804" rx="4" ry="4"/>
<polygon fill="#f5780e" stroke="#f5780e" points="605.345,-619.565 610.441,-609.855 605.647,-614.574 605.949,-609.583 605.949,-609.583 605.949,-609.583 605.647,-614.574 601.457,-609.312 605.345,-619.565 605.345,-619.565"/>
</g>
<!-- Office -->
<g id="node11" class="node"><title>Office</title>
<path fill="none" stroke="black" d="M1230.5,-662C1230.5,-662 1357.5,-662 1357.5,-662 1363.5,-662 1369.5,-668 1369.5,-674 1369.5,-674 1369.5,-876 1369.5,-876 1369.5,-882 1363.5,-888 1357.5,-888 1357.5,-888 1230.5,-888 1230.5,-888 1224.5,-888 1218.5,-882 1218.5,-876 1218.5,-876 1218.5,-674 1218.5,-674 1218.5,-668 1224.5,-662 1230.5,-662"/>
<text text-anchor="middle" x="1294" y="-872.8" font-family="Times,serif" font-size="14.00">Office</text>
<polyline fill="none" stroke="black" points="1218.5,-865 1369.5,-865 "/>
<text text-anchor="start" x="1226.5" y="-849.8" font-family="Times,serif" font-size="14.00">id :integer</text>
<text text-anchor="start" x="1226.5" y="-834.8" font-family="Times,serif" font-size="14.00">name :string</text>
<text text-anchor="start" x="1226.5" y="-819.8" font-family="Times,serif" font-size="14.00">room_no :string</text>
<text text-anchor="start" x="1226.5" y="-804.8" font-family="Times,serif" font-size="14.00">floor :string</text>
<text text-anchor="start" x="1226.5" y="-789.8" font-family="Times,serif" font-size="14.00">incharge_name :string</text>
<text text-anchor="start" x="1226.5" y="-774.8" font-family="Times,serif" font-size="14.00">created_at :datetime</text>
<text text-anchor="start" x="1226.5" y="-759.8" font-family="Times,serif" font-size="14.00">updated_at :datetime</text>
<text text-anchor="start" x="1226.5" y="-744.8" font-family="Times,serif" font-size="14.00">contact_no :string</text>
<text text-anchor="start" x="1226.5" y="-729.8" font-family="Times,serif" font-size="14.00">mobile :string</text>
<text text-anchor="start" x="1226.5" y="-714.8" font-family="Times,serif" font-size="14.00">email :string</text>
<text text-anchor="start" x="1226.5" y="-699.8" font-family="Times,serif" font-size="14.00">intercom :string</text>
<text text-anchor="start" x="1226.5" y="-684.8" font-family="Times,serif" font-size="14.00">parent_office_id :integer</text>
<text text-anchor="start" x="1226.5" y="-669.8" font-family="Times,serif" font-size="14.00">designation :string</text>
</g>
<!-- Contact -->
<g id="node22" class="node"><title>Contact</title>
<path fill="none" stroke="black" d="M1247.5,-376C1247.5,-376 1354.5,-376 1354.5,-376 1360.5,-376 1366.5,-382 1366.5,-388 1366.5,-388 1366.5,-530 1366.5,-530 1366.5,-536 1360.5,-542 1354.5,-542 1354.5,-542 1247.5,-542 1247.5,-542 1241.5,-542 1235.5,-536 1235.5,-530 1235.5,-530 1235.5,-388 1235.5,-388 1235.5,-382 1241.5,-376 1247.5,-376"/>
<text text-anchor="middle" x="1301" y="-526.8" font-family="Times,serif" font-size="14.00">Contact</text>
<polyline fill="none" stroke="black" points="1235.5,-519 1366.5,-519 "/>
<text text-anchor="start" x="1243.5" y="-503.8" font-family="Times,serif" font-size="14.00">id :integer</text>
<text text-anchor="start" x="1243.5" y="-488.8" font-family="Times,serif" font-size="14.00">room_no :string</text>
<text text-anchor="start" x="1243.5" y="-473.8" font-family="Times,serif" font-size="14.00">office_id :integer</text>
<text text-anchor="start" x="1243.5" y="-458.8" font-family="Times,serif" font-size="14.00">contact_no :string</text>
<text text-anchor="start" x="1243.5" y="-443.8" font-family="Times,serif" font-size="14.00">intercom :string</text>
<text text-anchor="start" x="1243.5" y="-428.8" font-family="Times,serif" font-size="14.00">created_at :datetime</text>
<text text-anchor="start" x="1243.5" y="-413.8" font-family="Times,serif" font-size="14.00">updated_at :datetime</text>
<text text-anchor="start" x="1243.5" y="-398.8" font-family="Times,serif" font-size="14.00">user_id :integer</text>
<text text-anchor="start" x="1243.5" y="-383.8" font-family="Times,serif" font-size="14.00">name :string</text>
</g>
<!-- Office&#45;&gt;Contact -->
<g id="edge4" class="edge"><title>Office&#45;&gt;Contact</title>
<path fill="none" stroke="#07f309" d="M1296.68,-653.589C1297.43,-620.051 1298.23,-584.154 1298.94,-552.494"/>
<ellipse fill="none" stroke="#07f309" cx="1296.59" cy="-657.97" rx="4" ry="4"/>
<polygon fill="#07f309" stroke="#07f309" points="1298.94,-552.369 1303.66,-542.472 1299.05,-547.37 1299.16,-542.372 1299.16,-542.372 1299.16,-542.372 1299.05,-547.37 1294.66,-542.271 1298.94,-552.369 1298.94,-552.369"/>
</g>
<!-- ComplaintMovement -->
<g id="node17" class="node"><title>ComplaintMovement</title>
<path fill="none" stroke="black" d="M912,-68C912,-68 1022,-68 1022,-68 1028,-68 1034,-74 1034,-80 1034,-80 1034,-192 1034,-192 1034,-198 1028,-204 1022,-204 1022,-204 912,-204 912,-204 906,-204 900,-198 900,-192 900,-192 900,-80 900,-80 900,-74 906,-68 912,-68"/>
<text text-anchor="middle" x="967" y="-188.8" font-family="Times,serif" font-size="14.00">ComplaintMovement</text>
<polyline fill="none" stroke="black" points="900,-181 1034,-181 "/>
<text text-anchor="start" x="908" y="-165.8" font-family="Times,serif" font-size="14.00">id :integer</text>
<text text-anchor="start" x="908" y="-150.8" font-family="Times,serif" font-size="14.00">complaint_id :integer</text>
<text text-anchor="start" x="908" y="-135.8" font-family="Times,serif" font-size="14.00">sender_id :integer</text>
<text text-anchor="start" x="908" y="-120.8" font-family="Times,serif" font-size="14.00">receiver_id :integer</text>
<text text-anchor="start" x="908" y="-105.8" font-family="Times,serif" font-size="14.00">on :datetime</text>
<text text-anchor="start" x="908" y="-90.8" font-family="Times,serif" font-size="14.00">created_at :datetime</text>
<text text-anchor="start" x="908" y="-75.8" font-family="Times,serif" font-size="14.00">updated_at :datetime</text>
</g>
<!-- Complaint&#45;&gt;ComplaintMovement -->
<g id="edge5" class="edge"><title>Complaint&#45;&gt;ComplaintMovement</title>
<path fill="none" stroke="#10ab6a" d="M967,-337.656C967,-296.419 967,-251.402 967,-214.477"/>
<ellipse fill="none" stroke="#10ab6a" cx="967" cy="-341.73" rx="4" ry="4"/>
<polygon fill="#10ab6a" stroke="#10ab6a" points="967,-214.286 971.5,-204.286 967,-209.286 967,-204.286 967,-204.286 967,-204.286 967,-209.286 962.5,-204.286 967,-214.286 967,-214.286"/>
</g>
<!-- ComplaintStatus -->
<g id="node19" class="node"><title>ComplaintStatus</title>
<path fill="none" stroke="black" d="M1071,-53C1071,-53 1181,-53 1181,-53 1187,-53 1193,-59 1193,-65 1193,-65 1193,-207 1193,-207 1193,-213 1187,-219 1181,-219 1181,-219 1071,-219 1071,-219 1065,-219 1059,-213 1059,-207 1059,-207 1059,-65 1059,-65 1059,-59 1065,-53 1071,-53"/>
<text text-anchor="middle" x="1126" y="-203.8" font-family="Times,serif" font-size="14.00">ComplaintStatus</text>
<polyline fill="none" stroke="black" points="1059,-196 1193,-196 "/>
<text text-anchor="start" x="1067" y="-180.8" font-family="Times,serif" font-size="14.00">id :integer</text>
<text text-anchor="start" x="1067" y="-165.8" font-family="Times,serif" font-size="14.00">status_id :integer</text>
<text text-anchor="start" x="1067" y="-150.8" font-family="Times,serif" font-size="14.00">remarks :string</text>
<text text-anchor="start" x="1067" y="-135.8" font-family="Times,serif" font-size="14.00">on :datetime</text>
<text text-anchor="start" x="1067" y="-120.8" font-family="Times,serif" font-size="14.00">created_at :datetime</text>
<text text-anchor="start" x="1067" y="-105.8" font-family="Times,serif" font-size="14.00">updated_at :datetime</text>
<text text-anchor="start" x="1067" y="-90.8" font-family="Times,serif" font-size="14.00">compliant_id :integer</text>
<text text-anchor="start" x="1067" y="-75.8" font-family="Times,serif" font-size="14.00">complaint_id :integer</text>
<text text-anchor="start" x="1067" y="-60.8" font-family="Times,serif" font-size="14.00">handler_id :integer</text>
</g>
<!-- Complaint&#45;&gt;ComplaintStatus -->
<g id="edge6" class="edge"><title>Complaint&#45;&gt;ComplaintStatus</title>
<path fill="none" stroke="#1214d5" d="M1026.26,-338.358C1044.32,-301.898 1063.87,-262.425 1080.84,-228.168"/>
<ellipse fill="none" stroke="#1214d5" cx="1024.39" cy="-342.145" rx="4.00002" ry="4.00002"/>
<polygon fill="#1214d5" stroke="#1214d5" points="1080.89,-228.076 1089.36,-221.113 1083.11,-223.596 1085.33,-219.115 1085.33,-219.115 1085.33,-219.115 1083.11,-223.596 1081.29,-217.118 1080.89,-228.076 1080.89,-228.076"/>
</g>
<!-- Test -->
<g id="node13" class="node"><title>Test</title>
<path fill="none" stroke="black" d="M1618.5,-722C1618.5,-722 1725.5,-722 1725.5,-722 1731.5,-722 1737.5,-728 1737.5,-734 1737.5,-734 1737.5,-816 1737.5,-816 1737.5,-822 1731.5,-828 1725.5,-828 1725.5,-828 1618.5,-828 1618.5,-828 1612.5,-828 1606.5,-822 1606.5,-816 1606.5,-816 1606.5,-734 1606.5,-734 1606.5,-728 1612.5,-722 1618.5,-722"/>
<text text-anchor="middle" x="1672" y="-812.8" font-family="Times,serif" font-size="14.00">Test</text>
<polyline fill="none" stroke="black" points="1606.5,-805 1737.5,-805 "/>
<text text-anchor="start" x="1614.5" y="-789.8" font-family="Times,serif" font-size="14.00">id :integer</text>
<text text-anchor="start" x="1614.5" y="-774.8" font-family="Times,serif" font-size="14.00">name :string</text>
<text text-anchor="start" x="1614.5" y="-759.8" font-family="Times,serif" font-size="14.00">num :integer</text>
<text text-anchor="start" x="1614.5" y="-744.8" font-family="Times,serif" font-size="14.00">created_at :datetime</text>
<text text-anchor="start" x="1614.5" y="-729.8" font-family="Times,serif" font-size="14.00">updated_at :datetime</text>
</g>
<!-- Handler -->
<g id="node14" class="node"><title>Handler</title>
<path fill="none" stroke="black" d="M1434.5,-376C1434.5,-376 1541.5,-376 1541.5,-376 1547.5,-376 1553.5,-382 1553.5,-388 1553.5,-388 1553.5,-530 1553.5,-530 1553.5,-536 1547.5,-542 1541.5,-542 1541.5,-542 1434.5,-542 1434.5,-542 1428.5,-542 1422.5,-536 1422.5,-530 1422.5,-530 1422.5,-388 1422.5,-388 1422.5,-382 1428.5,-376 1434.5,-376"/>
<text text-anchor="middle" x="1488" y="-526.8" font-family="Times,serif" font-size="14.00">Handler</text>
<polyline fill="none" stroke="black" points="1422.5,-519 1553.5,-519 "/>
<text text-anchor="start" x="1430.5" y="-503.8" font-family="Times,serif" font-size="14.00">id :integer</text>
<text text-anchor="start" x="1430.5" y="-488.8" font-family="Times,serif" font-size="14.00">name :string</text>
<text text-anchor="start" x="1430.5" y="-473.8" font-family="Times,serif" font-size="14.00">room_no :string</text>
<text text-anchor="start" x="1430.5" y="-458.8" font-family="Times,serif" font-size="14.00">floor :string</text>
<text text-anchor="start" x="1430.5" y="-443.8" font-family="Times,serif" font-size="14.00">contact_no :string</text>
<text text-anchor="start" x="1430.5" y="-428.8" font-family="Times,serif" font-size="14.00">intercom :string</text>
<text text-anchor="start" x="1430.5" y="-413.8" font-family="Times,serif" font-size="14.00">created_at :datetime</text>
<text text-anchor="start" x="1430.5" y="-398.8" font-family="Times,serif" font-size="14.00">updated_at :datetime</text>
<text text-anchor="start" x="1430.5" y="-383.8" font-family="Times,serif" font-size="14.00">user_id :integer</text>
</g>
<!-- VipRefSummary -->
<g id="node15" class="node"><title>VipRefSummary</title>
<path fill="none" stroke="black" d="M721.5,-75.5C721.5,-75.5 850.5,-75.5 850.5,-75.5 856.5,-75.5 862.5,-81.5 862.5,-87.5 862.5,-87.5 862.5,-184.5 862.5,-184.5 862.5,-190.5 856.5,-196.5 850.5,-196.5 850.5,-196.5 721.5,-196.5 721.5,-196.5 715.5,-196.5 709.5,-190.5 709.5,-184.5 709.5,-184.5 709.5,-87.5 709.5,-87.5 709.5,-81.5 715.5,-75.5 721.5,-75.5"/>
<text text-anchor="middle" x="786" y="-181.3" font-family="Times,serif" font-size="14.00">VipRefSummary</text>
<polyline fill="none" stroke="black" points="709.5,-173.5 862.5,-173.5 "/>
<text text-anchor="start" x="717.5" y="-158.3" font-family="Times,serif" font-size="14.00">id :integer</text>
<text text-anchor="start" x="717.5" y="-143.3" font-family="Times,serif" font-size="14.00">summary_text :text</text>
<text text-anchor="start" x="717.5" y="-128.3" font-family="Times,serif" font-size="14.00">vip_reference_id :integer</text>
<text text-anchor="start" x="717.5" y="-113.3" font-family="Times,serif" font-size="14.00">created_at :datetime</text>
<text text-anchor="start" x="717.5" y="-98.3" font-family="Times,serif" font-size="14.00">updated_at :datetime</text>
<text text-anchor="start" x="717.5" y="-83.3" font-family="Times,serif" font-size="14.00">creator_id :integer</text>
</g>
<!-- VipRefStatus -->
<g id="node16" class="node"><title>VipRefStatus</title>
<path fill="none" stroke="black" d="M1767.5,-707C1767.5,-707 1874.5,-707 1874.5,-707 1880.5,-707 1886.5,-713 1886.5,-719 1886.5,-719 1886.5,-831 1886.5,-831 1886.5,-837 1880.5,-843 1874.5,-843 1874.5,-843 1767.5,-843 1767.5,-843 1761.5,-843 1755.5,-837 1755.5,-831 1755.5,-831 1755.5,-719 1755.5,-719 1755.5,-713 1761.5,-707 1767.5,-707"/>
<text text-anchor="middle" x="1821" y="-827.8" font-family="Times,serif" font-size="14.00">VipRefStatus</text>
<polyline fill="none" stroke="black" points="1755.5,-820 1886.5,-820 "/>
<text text-anchor="start" x="1763.5" y="-804.8" font-family="Times,serif" font-size="14.00">id :integer</text>
<text text-anchor="start" x="1763.5" y="-789.8" font-family="Times,serif" font-size="14.00">status_name :string</text>
<text text-anchor="start" x="1763.5" y="-774.8" font-family="Times,serif" font-size="14.00">status_desc :string</text>
<text text-anchor="start" x="1763.5" y="-759.8" font-family="Times,serif" font-size="14.00">deleted :boolean</text>
<text text-anchor="start" x="1763.5" y="-744.8" font-family="Times,serif" font-size="14.00">created_at :datetime</text>
<text text-anchor="start" x="1763.5" y="-729.8" font-family="Times,serif" font-size="14.00">updated_at :datetime</text>
<text text-anchor="start" x="1763.5" y="-714.8" font-family="Times,serif" font-size="14.00">default :boolean</text>
</g>
<!-- VipReference&#45;&gt;Sender -->
<g id="edge9" class="edge"><title>VipReference&#45;&gt;Sender</title>
<path fill="none" stroke="#b33ea9" d="M532.843,-303.775C528.51,-295.642 524.166,-287.487 519.855,-279.394"/>
<ellipse fill="none" stroke="#b33ea9" cx="534.876" cy="-307.591" rx="4.00002" ry="4.00002"/>
<ellipse fill="#b33ea9" stroke="#b33ea9" cx="517.787" cy="-275.512" rx="4.00002" ry="4.00002"/>
</g>
<!-- VipReference&#45;&gt;VipRefMovement -->
<g id="edge7" class="edge"><title>VipReference&#45;&gt;VipRefMovement</title>
<path fill="none" stroke="#bd77d7" d="M615,-300.11C615,-278.494 615,-256.814 615,-236.641"/>
<ellipse fill="none" stroke="#bd77d7" cx="615" cy="-304.308" rx="4" ry="4"/>
<polygon fill="#bd77d7" stroke="#bd77d7" points="615,-236.552 619.5,-226.552 615,-231.552 615,-226.552 615,-226.552 615,-226.552 615,-231.552 610.5,-226.552 615,-236.552 615,-236.552"/>
</g>
<!-- VipReference&#45;&gt;VipRefSummary -->
<g id="edge8" class="edge"><title>VipReference&#45;&gt;VipRefSummary</title>
<path fill="none" stroke="#51c4d7" d="M697.036,-304.002C715.384,-269.559 733.946,-234.716 749.332,-205.832"/>
<ellipse fill="none" stroke="#51c4d7" cx="695.124" cy="-307.591" rx="4.00002" ry="4.00002"/>
<polygon fill="#51c4d7" stroke="#51c4d7" points="749.511,-205.497 758.184,-198.787 751.862,-201.084 754.212,-196.672 754.212,-196.672 754.212,-196.672 751.862,-201.084 750.241,-194.556 749.511,-205.497 749.511,-205.497"/>
</g>
<!-- User -->
<g id="node20" class="node"><title>User</title>
<path fill="none" stroke="black" d="M1400,-647C1400,-647 1576,-647 1576,-647 1582,-647 1588,-653 1588,-659 1588,-659 1588,-891 1588,-891 1588,-897 1582,-903 1576,-903 1576,-903 1400,-903 1400,-903 1394,-903 1388,-897 1388,-891 1388,-891 1388,-659 1388,-659 1388,-653 1394,-647 1400,-647"/>
<text text-anchor="middle" x="1488" y="-887.8" font-family="Times,serif" font-size="14.00">User</text>
<polyline fill="none" stroke="black" points="1388,-880 1588,-880 "/>
<text text-anchor="start" x="1396" y="-864.8" font-family="Times,serif" font-size="14.00">id :integer</text>
<text text-anchor="start" x="1396" y="-849.8" font-family="Times,serif" font-size="14.00">email :string</text>
<text text-anchor="start" x="1396" y="-834.8" font-family="Times,serif" font-size="14.00">encrypted_password :string</text>
<text text-anchor="start" x="1396" y="-819.8" font-family="Times,serif" font-size="14.00">reset_password_token :string</text>
<text text-anchor="start" x="1396" y="-804.8" font-family="Times,serif" font-size="14.00">reset_password_sent_at :datetime</text>
<text text-anchor="start" x="1396" y="-789.8" font-family="Times,serif" font-size="14.00">remember_created_at :datetime</text>
<text text-anchor="start" x="1396" y="-774.8" font-family="Times,serif" font-size="14.00">sign_in_count :integer</text>
<text text-anchor="start" x="1396" y="-759.8" font-family="Times,serif" font-size="14.00">current_sign_in_at :datetime</text>
<text text-anchor="start" x="1396" y="-744.8" font-family="Times,serif" font-size="14.00">last_sign_in_at :datetime</text>
<text text-anchor="start" x="1396" y="-729.8" font-family="Times,serif" font-size="14.00">current_sign_in_ip :inet</text>
<text text-anchor="start" x="1396" y="-714.8" font-family="Times,serif" font-size="14.00">last_sign_in_ip :inet</text>
<text text-anchor="start" x="1396" y="-699.8" font-family="Times,serif" font-size="14.00">created_at :datetime</text>
<text text-anchor="start" x="1396" y="-684.8" font-family="Times,serif" font-size="14.00">updated_at :datetime</text>
<text text-anchor="start" x="1396" y="-669.8" font-family="Times,serif" font-size="14.00">is_admin :boolean</text>
<text text-anchor="start" x="1396" y="-654.8" font-family="Times,serif" font-size="14.00">user_type_id :integer</text>
</g>
<!-- User&#45;&gt;Handler -->
<g id="edge11" class="edge"><title>User&#45;&gt;Handler</title>
<path fill="none" stroke="#a0f948" d="M1488,-638.455C1488,-608.695 1488,-577.888 1488,-550.418"/>
<ellipse fill="none" stroke="#a0f948" cx="1488" cy="-642.737" rx="4" ry="4"/>
<ellipse fill="#a0f948" stroke="#a0f948" cx="1488" cy="-546.385" rx="4" ry="4"/>
</g>
<!-- User&#45;&gt;Contact -->
<g id="edge10" class="edge"><title>User&#45;&gt;Contact</title>
<path fill="none" stroke="#ca9e84" d="M1408.02,-639.701C1389.86,-609.206 1371,-577.544 1354.27,-549.448"/>
<ellipse fill="none" stroke="#ca9e84" cx="1410.16" cy="-643.3" rx="4.00002" ry="4.00002"/>
<ellipse fill="#ca9e84" stroke="#ca9e84" cx="1352.11" cy="-545.822" rx="4.00002" ry="4.00002"/>
</g>
<!-- SearchVipRef -->
<g id="node21" class="node"><title>SearchVipRef</title>
<path fill="none" stroke="black" d="M1916.5,-722C1916.5,-722 2047.5,-722 2047.5,-722 2053.5,-722 2059.5,-728 2059.5,-734 2059.5,-734 2059.5,-816 2059.5,-816 2059.5,-822 2053.5,-828 2047.5,-828 2047.5,-828 1916.5,-828 1916.5,-828 1910.5,-828 1904.5,-822 1904.5,-816 1904.5,-816 1904.5,-734 1904.5,-734 1904.5,-728 1910.5,-722 1916.5,-722"/>
<text text-anchor="middle" x="1982" y="-812.8" font-family="Times,serif" font-size="14.00">SearchVipRef</text>
<polyline fill="none" stroke="black" points="1904.5,-805 2059.5,-805 "/>
<text text-anchor="start" x="1912.5" y="-789.8" font-family="Times,serif" font-size="14.00">section_id :integer</text>
<text text-anchor="start" x="1912.5" y="-774.8" font-family="Times,serif" font-size="14.00">vip_ref_status_id :integer</text>
<text text-anchor="start" x="1912.5" y="-759.8" font-family="Times,serif" font-size="14.00">vip_category_id :integer</text>
<text text-anchor="start" x="1912.5" y="-744.8" font-family="Times,serif" font-size="14.00">diary_date_from :date</text>
<text text-anchor="start" x="1912.5" y="-729.8" font-family="Times,serif" font-size="14.00">diary_date_to :date</text>
</g>
<!-- VipCategory -->
<g id="node23" class="node"><title>VipCategory</title>
<path fill="none" stroke="black" d="M691.5,-714.5C691.5,-714.5 798.5,-714.5 798.5,-714.5 804.5,-714.5 810.5,-720.5 810.5,-726.5 810.5,-726.5 810.5,-823.5 810.5,-823.5 810.5,-829.5 804.5,-835.5 798.5,-835.5 798.5,-835.5 691.5,-835.5 691.5,-835.5 685.5,-835.5 679.5,-829.5 679.5,-823.5 679.5,-823.5 679.5,-726.5 679.5,-726.5 679.5,-720.5 685.5,-714.5 691.5,-714.5"/>
<text text-anchor="middle" x="745" y="-820.3" font-family="Times,serif" font-size="14.00">VipCategory</text>
<polyline fill="none" stroke="black" points="679.5,-812.5 810.5,-812.5 "/>
<text text-anchor="start" x="687.5" y="-797.3" font-family="Times,serif" font-size="14.00">id :integer</text>
<text text-anchor="start" x="687.5" y="-782.3" font-family="Times,serif" font-size="14.00">name :string</text>
<text text-anchor="start" x="687.5" y="-767.3" font-family="Times,serif" font-size="14.00">created_at :datetime</text>
<text text-anchor="start" x="687.5" y="-752.3" font-family="Times,serif" font-size="14.00">updated_at :datetime</text>
<text text-anchor="start" x="687.5" y="-737.3" font-family="Times,serif" font-size="14.00">default :boolean</text>
<text text-anchor="start" x="687.5" y="-722.3" font-family="Times,serif" font-size="14.00">s_name :string</text>
</g>
<!-- VipCategory&#45;&gt;VipReference -->
<g id="edge12" class="edge"><title>VipCategory&#45;&gt;VipReference</title>
<path fill="none" stroke="#1614ac" d="M717.133,-706.691C706.419,-680.811 693.678,-650.038 680.892,-619.154"/>
<ellipse fill="none" stroke="#1614ac" cx="718.712" cy="-710.504" rx="4.00002" ry="4.00002"/>
<polygon fill="#1614ac" stroke="#1614ac" points="680.75,-618.811 681.082,-607.85 678.837,-614.191 676.924,-609.571 676.924,-609.571 676.924,-609.571 678.837,-614.191 672.767,-611.293 680.75,-618.811 680.75,-618.811"/>
</g>
<!-- Status -->
<g id="node24" class="node"><title>Status</title>
<path fill="none" stroke="black" d="M1079.5,-413.5C1079.5,-413.5 1186.5,-413.5 1186.5,-413.5 1192.5,-413.5 1198.5,-419.5 1198.5,-425.5 1198.5,-425.5 1198.5,-492.5 1198.5,-492.5 1198.5,-498.5 1192.5,-504.5 1186.5,-504.5 1186.5,-504.5 1079.5,-504.5 1079.5,-504.5 1073.5,-504.5 1067.5,-498.5 1067.5,-492.5 1067.5,-492.5 1067.5,-425.5 1067.5,-425.5 1067.5,-419.5 1073.5,-413.5 1079.5,-413.5"/>
<text text-anchor="middle" x="1133" y="-489.3" font-family="Times,serif" font-size="14.00">Status</text>
<polyline fill="none" stroke="black" points="1067.5,-481.5 1198.5,-481.5 "/>
<text text-anchor="start" x="1075.5" y="-466.3" font-family="Times,serif" font-size="14.00">id :integer</text>
<text text-anchor="start" x="1075.5" y="-451.3" font-family="Times,serif" font-size="14.00">type :string</text>
<text text-anchor="start" x="1075.5" y="-436.3" font-family="Times,serif" font-size="14.00">created_at :datetime</text>
<text text-anchor="start" x="1075.5" y="-421.3" font-family="Times,serif" font-size="14.00">updated_at :datetime</text>
</g>
<!-- Status&#45;&gt;ComplaintStatus -->
<g id="edge13" class="edge"><title>Status&#45;&gt;ComplaintStatus</title>
<path fill="none" stroke="#b2b514" d="M1131.85,-405.174C1130.81,-357.465 1129.25,-286.198 1128.01,-229.121"/>
<ellipse fill="none" stroke="#b2b514" cx="1131.94" cy="-409.367" rx="4" ry="4"/>
<polygon fill="#b2b514" stroke="#b2b514" points="1128.01,-228.999 1132.29,-218.903 1127.9,-224 1127.79,-219.001 1127.79,-219.001 1127.79,-219.001 1127.9,-224 1123.29,-219.1 1128.01,-228.999 1128.01,-228.999"/>
</g>
</g>
</svg>
